<?xml version="1.0" encoding="utf-8" standalone="no"?>
<!DOCTYPE svg PUBLIC "-//W3C//DTD SVG 1.1//EN"
  "http://www.w3.org/Graphics/SVG/1.1/DTD/svg11.dtd">
<!-- Created with matplotlib (https://matplotlib.org/) -->
<svg height="360pt" version="1.1" viewBox="0 0 720 360" width="720pt" xmlns="http://www.w3.org/2000/svg" xmlns:xlink="http://www.w3.org/1999/xlink">
 <defs>
  <style type="text/css">
*{stroke-linecap:butt;stroke-linejoin:round;}
  </style>
 </defs>
 <g id="figure_1">
  <g id="patch_1">
   <path d="M 0 360 
L 720 360 
L 720 0 
L 0 0 
z
" style="fill:#ffffff;"/>
  </g>
  <g id="axes_1">
   <g id="patch_2">
    <path d="M 45.97 319.79 
L 614.6725 319.79 
L 614.6725 14.76 
L 45.97 14.76 
z
" style="fill:#ffffff;"/>
   </g>
   <g id="matplotlib.axis_1">
    <g id="xtick_1">
     <g id="line2d_1">
      <defs>
       <path d="M 0 1.75 
L 0 -1.75 
" id="m17f9137c09" style="stroke:#000000;stroke-width:0.8;"/>
      </defs>
      <g>
       <use style="stroke:#000000;stroke-width:0.8;" x="45.97" xlink:href="#m17f9137c09" y="319.79"/>
      </g>
     </g>
     <g id="text_1">
      <!-- 0 -->
      <defs>
       <path d="M 31.78125 66.40625 
Q 24.171875 66.40625 20.328125 58.90625 
Q 16.5 51.421875 16.5 36.375 
Q 16.5 21.390625 20.328125 13.890625 
Q 24.171875 6.390625 31.78125 6.390625 
Q 39.453125 6.390625 43.28125 13.890625 
Q 47.125 21.390625 47.125 36.375 
Q 47.125 51.421875 43.28125 58.90625 
Q 39.453125 66.40625 31.78125 66.40625 
z
M 31.78125 74.21875 
Q 44.046875 74.21875 50.515625 64.515625 
Q 56.984375 54.828125 56.984375 36.375 
Q 56.984375 17.96875 50.515625 8.265625 
Q 44.046875 -1.421875 31.78125 -1.421875 
Q 19.53125 -1.421875 13.0625 8.265625 
Q 6.59375 17.96875 6.59375 36.375 
Q 6.59375 54.828125 13.0625 64.515625 
Q 19.53125 74.21875 31.78125 74.21875 
z
" id="DejaVuSans-48"/>
      </defs>
      <g transform="translate(42.78875 332.638438)scale(0.1 -0.1)">
       <use xlink:href="#DejaVuSans-48"/>
      </g>
     </g>
    </g>
    <g id="xtick_2">
     <g id="line2d_2">
      <g>
       <use style="stroke:#000000;stroke-width:0.8;" x="93.760126" xlink:href="#m17f9137c09" y="319.79"/>
      </g>
     </g>
     <g id="text_2">
      <!-- 10 -->
      <defs>
       <path d="M 12.40625 8.296875 
L 28.515625 8.296875 
L 28.515625 63.921875 
L 10.984375 60.40625 
L 10.984375 69.390625 
L 28.421875 72.90625 
L 38.28125 72.90625 
L 38.28125 8.296875 
L 54.390625 8.296875 
L 54.390625 0 
L 12.40625 0 
z
" id="DejaVuSans-49"/>
      </defs>
      <g transform="translate(87.397626 332.638438)scale(0.1 -0.1)">
       <use xlink:href="#DejaVuSans-49"/>
       <use x="63.623047" xlink:href="#DejaVuSans-48"/>
      </g>
     </g>
    </g>
    <g id="xtick_3">
     <g id="line2d_3">
      <g>
       <use style="stroke:#000000;stroke-width:0.8;" x="141.550252" xlink:href="#m17f9137c09" y="319.79"/>
      </g>
     </g>
     <g id="text_3">
      <!-- 20 -->
      <defs>
       <path d="M 19.1875 8.296875 
L 53.609375 8.296875 
L 53.609375 0 
L 7.328125 0 
L 7.328125 8.296875 
Q 12.9375 14.109375 22.625 23.890625 
Q 32.328125 33.6875 34.8125 36.53125 
Q 39.546875 41.84375 41.421875 45.53125 
Q 43.3125 49.21875 43.3125 52.78125 
Q 43.3125 58.59375 39.234375 62.25 
Q 35.15625 65.921875 28.609375 65.921875 
Q 23.96875 65.921875 18.8125 64.3125 
Q 13.671875 62.703125 7.8125 59.421875 
L 7.8125 69.390625 
Q 13.765625 71.78125 18.9375 73 
Q 24.125 74.21875 28.421875 74.21875 
Q 39.75 74.21875 46.484375 68.546875 
Q 53.21875 62.890625 53.21875 53.421875 
Q 53.21875 48.921875 51.53125 44.890625 
Q 49.859375 40.875 45.40625 35.40625 
Q 44.1875 33.984375 37.640625 27.21875 
Q 31.109375 20.453125 19.1875 8.296875 
z
" id="DejaVuSans-50"/>
      </defs>
      <g transform="translate(135.187752 332.638438)scale(0.1 -0.1)">
       <use xlink:href="#DejaVuSans-50"/>
       <use x="63.623047" xlink:href="#DejaVuSans-48"/>
      </g>
     </g>
    </g>
    <g id="xtick_4">
     <g id="line2d_4">
      <g>
       <use style="stroke:#000000;stroke-width:0.8;" x="189.340378" xlink:href="#m17f9137c09" y="319.79"/>
      </g>
     </g>
     <g id="text_4">
      <!-- 30 -->
      <defs>
       <path d="M 40.578125 39.3125 
Q 47.65625 37.796875 51.625 33 
Q 55.609375 28.21875 55.609375 21.1875 
Q 55.609375 10.40625 48.1875 4.484375 
Q 40.765625 -1.421875 27.09375 -1.421875 
Q 22.515625 -1.421875 17.65625 -0.515625 
Q 12.796875 0.390625 7.625 2.203125 
L 7.625 11.71875 
Q 11.71875 9.328125 16.59375 8.109375 
Q 21.484375 6.890625 26.8125 6.890625 
Q 36.078125 6.890625 40.9375 10.546875 
Q 45.796875 14.203125 45.796875 21.1875 
Q 45.796875 27.640625 41.28125 31.265625 
Q 36.765625 34.90625 28.71875 34.90625 
L 20.21875 34.90625 
L 20.21875 43.015625 
L 29.109375 43.015625 
Q 36.375 43.015625 40.234375 45.921875 
Q 44.09375 48.828125 44.09375 54.296875 
Q 44.09375 59.90625 40.109375 62.90625 
Q 36.140625 65.921875 28.71875 65.921875 
Q 24.65625 65.921875 20.015625 65.03125 
Q 15.375 64.15625 9.8125 62.3125 
L 9.8125 71.09375 
Q 15.4375 72.65625 20.34375 73.4375 
Q 25.25 74.21875 29.59375 74.21875 
Q 40.828125 74.21875 47.359375 69.109375 
Q 53.90625 64.015625 53.90625 55.328125 
Q 53.90625 49.265625 50.4375 45.09375 
Q 46.96875 40.921875 40.578125 39.3125 
z
" id="DejaVuSans-51"/>
      </defs>
      <g transform="translate(182.977878 332.638438)scale(0.1 -0.1)">
       <use xlink:href="#DejaVuSans-51"/>
       <use x="63.623047" xlink:href="#DejaVuSans-48"/>
      </g>
     </g>
    </g>
    <g id="xtick_5">
     <g id="line2d_5">
      <g>
       <use style="stroke:#000000;stroke-width:0.8;" x="237.130504" xlink:href="#m17f9137c09" y="319.79"/>
      </g>
     </g>
     <g id="text_5">
      <!-- 40 -->
      <defs>
       <path d="M 37.796875 64.3125 
L 12.890625 25.390625 
L 37.796875 25.390625 
z
M 35.203125 72.90625 
L 47.609375 72.90625 
L 47.609375 25.390625 
L 58.015625 25.390625 
L 58.015625 17.1875 
L 47.609375 17.1875 
L 47.609375 0 
L 37.796875 0 
L 37.796875 17.1875 
L 4.890625 17.1875 
L 4.890625 26.703125 
z
" id="DejaVuSans-52"/>
      </defs>
      <g transform="translate(230.768004 332.638438)scale(0.1 -0.1)">
       <use xlink:href="#DejaVuSans-52"/>
       <use x="63.623047" xlink:href="#DejaVuSans-48"/>
      </g>
     </g>
    </g>
    <g id="xtick_6">
     <g id="line2d_6">
      <g>
       <use style="stroke:#000000;stroke-width:0.8;" x="284.92063" xlink:href="#m17f9137c09" y="319.79"/>
      </g>
     </g>
     <g id="text_6">
      <!-- 50 -->
      <defs>
       <path d="M 10.796875 72.90625 
L 49.515625 72.90625 
L 49.515625 64.59375 
L 19.828125 64.59375 
L 19.828125 46.734375 
Q 21.96875 47.46875 24.109375 47.828125 
Q 26.265625 48.1875 28.421875 48.1875 
Q 40.625 48.1875 47.75 41.5 
Q 54.890625 34.8125 54.890625 23.390625 
Q 54.890625 11.625 47.5625 5.09375 
Q 40.234375 -1.421875 26.90625 -1.421875 
Q 22.3125 -1.421875 17.546875 -0.640625 
Q 12.796875 0.140625 7.71875 1.703125 
L 7.71875 11.625 
Q 12.109375 9.234375 16.796875 8.0625 
Q 21.484375 6.890625 26.703125 6.890625 
Q 35.15625 6.890625 40.078125 11.328125 
Q 45.015625 15.765625 45.015625 23.390625 
Q 45.015625 31 40.078125 35.4375 
Q 35.15625 39.890625 26.703125 39.890625 
Q 22.75 39.890625 18.8125 39.015625 
Q 14.890625 38.140625 10.796875 36.28125 
z
" id="DejaVuSans-53"/>
      </defs>
      <g transform="translate(278.55813 332.638438)scale(0.1 -0.1)">
       <use xlink:href="#DejaVuSans-53"/>
       <use x="63.623047" xlink:href="#DejaVuSans-48"/>
      </g>
     </g>
    </g>
    <g id="xtick_7">
     <g id="line2d_7">
      <g>
       <use style="stroke:#000000;stroke-width:0.8;" x="332.710756" xlink:href="#m17f9137c09" y="319.79"/>
      </g>
     </g>
     <g id="text_7">
      <!-- 60 -->
      <defs>
       <path d="M 33.015625 40.375 
Q 26.375 40.375 22.484375 35.828125 
Q 18.609375 31.296875 18.609375 23.390625 
Q 18.609375 15.53125 22.484375 10.953125 
Q 26.375 6.390625 33.015625 6.390625 
Q 39.65625 6.390625 43.53125 10.953125 
Q 47.40625 15.53125 47.40625 23.390625 
Q 47.40625 31.296875 43.53125 35.828125 
Q 39.65625 40.375 33.015625 40.375 
z
M 52.59375 71.296875 
L 52.59375 62.3125 
Q 48.875 64.0625 45.09375 64.984375 
Q 41.3125 65.921875 37.59375 65.921875 
Q 27.828125 65.921875 22.671875 59.328125 
Q 17.53125 52.734375 16.796875 39.40625 
Q 19.671875 43.65625 24.015625 45.921875 
Q 28.375 48.1875 33.59375 48.1875 
Q 44.578125 48.1875 50.953125 41.515625 
Q 57.328125 34.859375 57.328125 23.390625 
Q 57.328125 12.15625 50.6875 5.359375 
Q 44.046875 -1.421875 33.015625 -1.421875 
Q 20.359375 -1.421875 13.671875 8.265625 
Q 6.984375 17.96875 6.984375 36.375 
Q 6.984375 53.65625 15.1875 63.9375 
Q 23.390625 74.21875 37.203125 74.21875 
Q 40.921875 74.21875 44.703125 73.484375 
Q 48.484375 72.75 52.59375 71.296875 
z
" id="DejaVuSans-54"/>
      </defs>
      <g transform="translate(326.348256 332.638438)scale(0.1 -0.1)">
       <use xlink:href="#DejaVuSans-54"/>
       <use x="63.623047" xlink:href="#DejaVuSans-48"/>
      </g>
     </g>
    </g>
    <g id="xtick_8">
     <g id="line2d_8">
      <g>
       <use style="stroke:#000000;stroke-width:0.8;" x="380.500882" xlink:href="#m17f9137c09" y="319.79"/>
      </g>
     </g>
     <g id="text_8">
      <!-- 70 -->
      <defs>
       <path d="M 8.203125 72.90625 
L 55.078125 72.90625 
L 55.078125 68.703125 
L 28.609375 0 
L 18.3125 0 
L 43.21875 64.59375 
L 8.203125 64.59375 
z
" id="DejaVuSans-55"/>
      </defs>
      <g transform="translate(374.138382 332.638438)scale(0.1 -0.1)">
       <use xlink:href="#DejaVuSans-55"/>
       <use x="63.623047" xlink:href="#DejaVuSans-48"/>
      </g>
     </g>
    </g>
    <g id="xtick_9">
     <g id="line2d_9">
      <g>
       <use style="stroke:#000000;stroke-width:0.8;" x="428.291008" xlink:href="#m17f9137c09" y="319.79"/>
      </g>
     </g>
     <g id="text_9">
      <!-- 80 -->
      <defs>
       <path d="M 31.78125 34.625 
Q 24.75 34.625 20.71875 30.859375 
Q 16.703125 27.09375 16.703125 20.515625 
Q 16.703125 13.921875 20.71875 10.15625 
Q 24.75 6.390625 31.78125 6.390625 
Q 38.8125 6.390625 42.859375 10.171875 
Q 46.921875 13.96875 46.921875 20.515625 
Q 46.921875 27.09375 42.890625 30.859375 
Q 38.875 34.625 31.78125 34.625 
z
M 21.921875 38.8125 
Q 15.578125 40.375 12.03125 44.71875 
Q 8.5 49.078125 8.5 55.328125 
Q 8.5 64.0625 14.71875 69.140625 
Q 20.953125 74.21875 31.78125 74.21875 
Q 42.671875 74.21875 48.875 69.140625 
Q 55.078125 64.0625 55.078125 55.328125 
Q 55.078125 49.078125 51.53125 44.71875 
Q 48 40.375 41.703125 38.8125 
Q 48.828125 37.15625 52.796875 32.3125 
Q 56.78125 27.484375 56.78125 20.515625 
Q 56.78125 9.90625 50.3125 4.234375 
Q 43.84375 -1.421875 31.78125 -1.421875 
Q 19.734375 -1.421875 13.25 4.234375 
Q 6.78125 9.90625 6.78125 20.515625 
Q 6.78125 27.484375 10.78125 32.3125 
Q 14.796875 37.15625 21.921875 38.8125 
z
M 18.3125 54.390625 
Q 18.3125 48.734375 21.84375 45.5625 
Q 25.390625 42.390625 31.78125 42.390625 
Q 38.140625 42.390625 41.71875 45.5625 
Q 45.3125 48.734375 45.3125 54.390625 
Q 45.3125 60.0625 41.71875 63.234375 
Q 38.140625 66.40625 31.78125 66.40625 
Q 25.390625 66.40625 21.84375 63.234375 
Q 18.3125 60.0625 18.3125 54.390625 
z
" id="DejaVuSans-56"/>
      </defs>
      <g transform="translate(421.928508 332.638438)scale(0.1 -0.1)">
       <use xlink:href="#DejaVuSans-56"/>
       <use x="63.623047" xlink:href="#DejaVuSans-48"/>
      </g>
     </g>
    </g>
    <g id="xtick_10">
     <g id="line2d_10">
      <g>
       <use style="stroke:#000000;stroke-width:0.8;" x="476.081134" xlink:href="#m17f9137c09" y="319.79"/>
      </g>
     </g>
     <g id="text_10">
      <!-- 90 -->
      <defs>
       <path d="M 10.984375 1.515625 
L 10.984375 10.5 
Q 14.703125 8.734375 18.5 7.8125 
Q 22.3125 6.890625 25.984375 6.890625 
Q 35.75 6.890625 40.890625 13.453125 
Q 46.046875 20.015625 46.78125 33.40625 
Q 43.953125 29.203125 39.59375 26.953125 
Q 35.25 24.703125 29.984375 24.703125 
Q 19.046875 24.703125 12.671875 31.3125 
Q 6.296875 37.9375 6.296875 49.421875 
Q 6.296875 60.640625 12.9375 67.421875 
Q 19.578125 74.21875 30.609375 74.21875 
Q 43.265625 74.21875 49.921875 64.515625 
Q 56.59375 54.828125 56.59375 36.375 
Q 56.59375 19.140625 48.40625 8.859375 
Q 40.234375 -1.421875 26.421875 -1.421875 
Q 22.703125 -1.421875 18.890625 -0.6875 
Q 15.09375 0.046875 10.984375 1.515625 
z
M 30.609375 32.421875 
Q 37.25 32.421875 41.125 36.953125 
Q 45.015625 41.5 45.015625 49.421875 
Q 45.015625 57.28125 41.125 61.84375 
Q 37.25 66.40625 30.609375 66.40625 
Q 23.96875 66.40625 20.09375 61.84375 
Q 16.21875 57.28125 16.21875 49.421875 
Q 16.21875 41.5 20.09375 36.953125 
Q 23.96875 32.421875 30.609375 32.421875 
z
" id="DejaVuSans-57"/>
      </defs>
      <g transform="translate(469.718634 332.638438)scale(0.1 -0.1)">
       <use xlink:href="#DejaVuSans-57"/>
       <use x="63.623047" xlink:href="#DejaVuSans-48"/>
      </g>
     </g>
    </g>
    <g id="xtick_11">
     <g id="line2d_11">
      <g>
       <use style="stroke:#000000;stroke-width:0.8;" x="523.871261" xlink:href="#m17f9137c09" y="319.79"/>
      </g>
     </g>
     <g id="text_11">
      <!-- 100 -->
      <g transform="translate(514.327511 332.638438)scale(0.1 -0.1)">
       <use xlink:href="#DejaVuSans-49"/>
       <use x="63.623047" xlink:href="#DejaVuSans-48"/>
       <use x="127.246094" xlink:href="#DejaVuSans-48"/>
      </g>
     </g>
    </g>
    <g id="xtick_12">
     <g id="line2d_12">
      <g>
       <use style="stroke:#000000;stroke-width:0.8;" x="571.661387" xlink:href="#m17f9137c09" y="319.79"/>
      </g>
     </g>
     <g id="text_12">
      <!-- 110 -->
      <g transform="translate(562.117637 332.638438)scale(0.1 -0.1)">
       <use xlink:href="#DejaVuSans-49"/>
       <use x="63.623047" xlink:href="#DejaVuSans-49"/>
       <use x="127.246094" xlink:href="#DejaVuSans-48"/>
      </g>
     </g>
    </g>
    <g id="text_13">
     <!-- epochs -->
     <defs>
      <path d="M 56.203125 29.59375 
L 56.203125 25.203125 
L 14.890625 25.203125 
Q 15.484375 15.921875 20.484375 11.0625 
Q 25.484375 6.203125 34.421875 6.203125 
Q 39.59375 6.203125 44.453125 7.46875 
Q 49.3125 8.734375 54.109375 11.28125 
L 54.109375 2.78125 
Q 49.265625 0.734375 44.1875 -0.34375 
Q 39.109375 -1.421875 33.890625 -1.421875 
Q 20.796875 -1.421875 13.15625 6.1875 
Q 5.515625 13.8125 5.515625 26.8125 
Q 5.515625 40.234375 12.765625 48.109375 
Q 20.015625 56 32.328125 56 
Q 43.359375 56 49.78125 48.890625 
Q 56.203125 41.796875 56.203125 29.59375 
z
M 47.21875 32.234375 
Q 47.125 39.59375 43.09375 43.984375 
Q 39.0625 48.390625 32.421875 48.390625 
Q 24.90625 48.390625 20.390625 44.140625 
Q 15.875 39.890625 15.1875 32.171875 
z
" id="DejaVuSans-101"/>
      <path d="M 18.109375 8.203125 
L 18.109375 -20.796875 
L 9.078125 -20.796875 
L 9.078125 54.6875 
L 18.109375 54.6875 
L 18.109375 46.390625 
Q 20.953125 51.265625 25.265625 53.625 
Q 29.59375 56 35.59375 56 
Q 45.5625 56 51.78125 48.09375 
Q 58.015625 40.1875 58.015625 27.296875 
Q 58.015625 14.40625 51.78125 6.484375 
Q 45.5625 -1.421875 35.59375 -1.421875 
Q 29.59375 -1.421875 25.265625 0.953125 
Q 20.953125 3.328125 18.109375 8.203125 
z
M 48.6875 27.296875 
Q 48.6875 37.203125 44.609375 42.84375 
Q 40.53125 48.484375 33.40625 48.484375 
Q 26.265625 48.484375 22.1875 42.84375 
Q 18.109375 37.203125 18.109375 27.296875 
Q 18.109375 17.390625 22.1875 11.75 
Q 26.265625 6.109375 33.40625 6.109375 
Q 40.53125 6.109375 44.609375 11.75 
Q 48.6875 17.390625 48.6875 27.296875 
z
" id="DejaVuSans-112"/>
      <path d="M 30.609375 48.390625 
Q 23.390625 48.390625 19.1875 42.75 
Q 14.984375 37.109375 14.984375 27.296875 
Q 14.984375 17.484375 19.15625 11.84375 
Q 23.34375 6.203125 30.609375 6.203125 
Q 37.796875 6.203125 41.984375 11.859375 
Q 46.1875 17.53125 46.1875 27.296875 
Q 46.1875 37.015625 41.984375 42.703125 
Q 37.796875 48.390625 30.609375 48.390625 
z
M 30.609375 56 
Q 42.328125 56 49.015625 48.375 
Q 55.71875 40.765625 55.71875 27.296875 
Q 55.71875 13.875 49.015625 6.21875 
Q 42.328125 -1.421875 30.609375 -1.421875 
Q 18.84375 -1.421875 12.171875 6.21875 
Q 5.515625 13.875 5.515625 27.296875 
Q 5.515625 40.765625 12.171875 48.375 
Q 18.84375 56 30.609375 56 
z
" id="DejaVuSans-111"/>
      <path d="M 48.78125 52.59375 
L 48.78125 44.1875 
Q 44.96875 46.296875 41.140625 47.34375 
Q 37.3125 48.390625 33.40625 48.390625 
Q 24.65625 48.390625 19.8125 42.84375 
Q 14.984375 37.3125 14.984375 27.296875 
Q 14.984375 17.28125 19.8125 11.734375 
Q 24.65625 6.203125 33.40625 6.203125 
Q 37.3125 6.203125 41.140625 7.25 
Q 44.96875 8.296875 48.78125 10.40625 
L 48.78125 2.09375 
Q 45.015625 0.34375 40.984375 -0.53125 
Q 36.96875 -1.421875 32.421875 -1.421875 
Q 20.0625 -1.421875 12.78125 6.34375 
Q 5.515625 14.109375 5.515625 27.296875 
Q 5.515625 40.671875 12.859375 48.328125 
Q 20.21875 56 33.015625 56 
Q 37.15625 56 41.109375 55.140625 
Q 45.0625 54.296875 48.78125 52.59375 
z
" id="DejaVuSans-99"/>
      <path d="M 54.890625 33.015625 
L 54.890625 0 
L 45.90625 0 
L 45.90625 32.71875 
Q 45.90625 40.484375 42.875 44.328125 
Q 39.84375 48.1875 33.796875 48.1875 
Q 26.515625 48.1875 22.3125 43.546875 
Q 18.109375 38.921875 18.109375 30.90625 
L 18.109375 0 
L 9.078125 0 
L 9.078125 75.984375 
L 18.109375 75.984375 
L 18.109375 46.1875 
Q 21.34375 51.125 25.703125 53.5625 
Q 30.078125 56 35.796875 56 
Q 45.21875 56 50.046875 50.171875 
Q 54.890625 44.34375 54.890625 33.015625 
z
" id="DejaVuSans-104"/>
      <path d="M 44.28125 53.078125 
L 44.28125 44.578125 
Q 40.484375 46.53125 36.375 47.5 
Q 32.28125 48.484375 27.875 48.484375 
Q 21.1875 48.484375 17.84375 46.4375 
Q 14.5 44.390625 14.5 40.28125 
Q 14.5 37.15625 16.890625 35.375 
Q 19.28125 33.59375 26.515625 31.984375 
L 29.59375 31.296875 
Q 39.15625 29.25 43.1875 25.515625 
Q 47.21875 21.78125 47.21875 15.09375 
Q 47.21875 7.46875 41.1875 3.015625 
Q 35.15625 -1.421875 24.609375 -1.421875 
Q 20.21875 -1.421875 15.453125 -0.5625 
Q 10.6875 0.296875 5.421875 2 
L 5.421875 11.28125 
Q 10.40625 8.6875 15.234375 7.390625 
Q 20.0625 6.109375 24.8125 6.109375 
Q 31.15625 6.109375 34.5625 8.28125 
Q 37.984375 10.453125 37.984375 14.40625 
Q 37.984375 18.0625 35.515625 20.015625 
Q 33.0625 21.96875 24.703125 23.78125 
L 21.578125 24.515625 
Q 13.234375 26.265625 9.515625 29.90625 
Q 5.8125 33.546875 5.8125 39.890625 
Q 5.8125 47.609375 11.28125 51.796875 
Q 16.75 56 26.8125 56 
Q 31.78125 56 36.171875 55.265625 
Q 40.578125 54.546875 44.28125 53.078125 
z
" id="DejaVuSans-115"/>
     </defs>
     <g transform="translate(312.488438 346.316563)scale(0.1 -0.1)">
      <use xlink:href="#DejaVuSans-101"/>
      <use x="61.523438" xlink:href="#DejaVuSans-112"/>
      <use x="125" xlink:href="#DejaVuSans-111"/>
      <use x="186.181641" xlink:href="#DejaVuSans-99"/>
      <use x="241.162109" xlink:href="#DejaVuSans-104"/>
      <use x="304.541016" xlink:href="#DejaVuSans-115"/>
     </g>
    </g>
   </g>
   <g id="matplotlib.axis_2">
    <g id="ytick_1">
     <g id="line2d_13">
      <defs>
       <path d="M 1.75 0 
L -1.75 -0 
" id="m1547ecf349" style="stroke:#000000;stroke-width:0.8;"/>
      </defs>
      <g>
       <use style="stroke:#000000;stroke-width:0.8;" x="45.97" xlink:href="#m1547ecf349" y="319.79"/>
      </g>
     </g>
     <g id="text_14">
      <!-- 0.0 -->
      <defs>
       <path d="M 10.6875 12.40625 
L 21 12.40625 
L 21 0 
L 10.6875 0 
z
" id="DejaVuSans-46"/>
      </defs>
      <g transform="translate(24.816875 323.589219)scale(0.1 -0.1)">
       <use xlink:href="#DejaVuSans-48"/>
       <use x="63.623047" xlink:href="#DejaVuSans-46"/>
       <use x="95.410156" xlink:href="#DejaVuSans-48"/>
      </g>
     </g>
    </g>
    <g id="ytick_2">
     <g id="line2d_14">
      <g>
       <use style="stroke:#000000;stroke-width:0.8;" x="45.97" xlink:href="#m1547ecf349" y="289.287"/>
      </g>
     </g>
     <g id="text_15">
      <!-- 0.1 -->
      <g transform="translate(24.816875 293.086219)scale(0.1 -0.1)">
       <use xlink:href="#DejaVuSans-48"/>
       <use x="63.623047" xlink:href="#DejaVuSans-46"/>
       <use x="95.410156" xlink:href="#DejaVuSans-49"/>
      </g>
     </g>
    </g>
    <g id="ytick_3">
     <g id="line2d_15">
      <g>
       <use style="stroke:#000000;stroke-width:0.8;" x="45.97" xlink:href="#m1547ecf349" y="258.784"/>
      </g>
     </g>
     <g id="text_16">
      <!-- 0.2 -->
      <g transform="translate(24.816875 262.583219)scale(0.1 -0.1)">
       <use xlink:href="#DejaVuSans-48"/>
       <use x="63.623047" xlink:href="#DejaVuSans-46"/>
       <use x="95.410156" xlink:href="#DejaVuSans-50"/>
      </g>
     </g>
    </g>
    <g id="ytick_4">
     <g id="line2d_16">
      <g>
       <use style="stroke:#000000;stroke-width:0.8;" x="45.97" xlink:href="#m1547ecf349" y="228.281"/>
      </g>
     </g>
     <g id="text_17">
      <!-- 0.3 -->
      <g transform="translate(24.816875 232.080219)scale(0.1 -0.1)">
       <use xlink:href="#DejaVuSans-48"/>
       <use x="63.623047" xlink:href="#DejaVuSans-46"/>
       <use x="95.410156" xlink:href="#DejaVuSans-51"/>
      </g>
     </g>
    </g>
    <g id="ytick_5">
     <g id="line2d_17">
      <g>
       <use style="stroke:#000000;stroke-width:0.8;" x="45.97" xlink:href="#m1547ecf349" y="197.778"/>
      </g>
     </g>
     <g id="text_18">
      <!-- 0.4 -->
      <g transform="translate(24.816875 201.577219)scale(0.1 -0.1)">
       <use xlink:href="#DejaVuSans-48"/>
       <use x="63.623047" xlink:href="#DejaVuSans-46"/>
       <use x="95.410156" xlink:href="#DejaVuSans-52"/>
      </g>
     </g>
    </g>
    <g id="ytick_6">
     <g id="line2d_18">
      <g>
       <use style="stroke:#000000;stroke-width:0.8;" x="45.97" xlink:href="#m1547ecf349" y="167.275"/>
      </g>
     </g>
     <g id="text_19">
      <!-- 0.5 -->
      <g transform="translate(24.816875 171.074219)scale(0.1 -0.1)">
       <use xlink:href="#DejaVuSans-48"/>
       <use x="63.623047" xlink:href="#DejaVuSans-46"/>
       <use x="95.410156" xlink:href="#DejaVuSans-53"/>
      </g>
     </g>
    </g>
    <g id="ytick_7">
     <g id="line2d_19">
      <g>
       <use style="stroke:#000000;stroke-width:0.8;" x="45.97" xlink:href="#m1547ecf349" y="136.772"/>
      </g>
     </g>
     <g id="text_20">
      <!-- 0.6 -->
      <g transform="translate(24.816875 140.571219)scale(0.1 -0.1)">
       <use xlink:href="#DejaVuSans-48"/>
       <use x="63.623047" xlink:href="#DejaVuSans-46"/>
       <use x="95.410156" xlink:href="#DejaVuSans-54"/>
      </g>
     </g>
    </g>
    <g id="ytick_8">
     <g id="line2d_20">
      <g>
       <use style="stroke:#000000;stroke-width:0.8;" x="45.97" xlink:href="#m1547ecf349" y="106.269"/>
      </g>
     </g>
     <g id="text_21">
      <!-- 0.7 -->
      <g transform="translate(24.816875 110.068219)scale(0.1 -0.1)">
       <use xlink:href="#DejaVuSans-48"/>
       <use x="63.623047" xlink:href="#DejaVuSans-46"/>
       <use x="95.410156" xlink:href="#DejaVuSans-55"/>
      </g>
     </g>
    </g>
    <g id="ytick_9">
     <g id="line2d_21">
      <g>
       <use style="stroke:#000000;stroke-width:0.8;" x="45.97" xlink:href="#m1547ecf349" y="75.766"/>
      </g>
     </g>
     <g id="text_22">
      <!-- 0.8 -->
      <g transform="translate(24.816875 79.565219)scale(0.1 -0.1)">
       <use xlink:href="#DejaVuSans-48"/>
       <use x="63.623047" xlink:href="#DejaVuSans-46"/>
       <use x="95.410156" xlink:href="#DejaVuSans-56"/>
      </g>
     </g>
    </g>
    <g id="ytick_10">
     <g id="line2d_22">
      <g>
       <use style="stroke:#000000;stroke-width:0.8;" x="45.97" xlink:href="#m1547ecf349" y="45.263"/>
      </g>
     </g>
     <g id="text_23">
      <!-- 0.9 -->
      <g transform="translate(24.816875 49.062219)scale(0.1 -0.1)">
       <use xlink:href="#DejaVuSans-48"/>
       <use x="63.623047" xlink:href="#DejaVuSans-46"/>
       <use x="95.410156" xlink:href="#DejaVuSans-57"/>
      </g>
     </g>
    </g>
    <g id="ytick_11">
     <g id="line2d_23">
      <g>
       <use style="stroke:#000000;stroke-width:0.8;" x="45.97" xlink:href="#m1547ecf349" y="14.76"/>
      </g>
     </g>
     <g id="text_24">
      <!-- 1.0 -->
      <g transform="translate(24.816875 18.559219)scale(0.1 -0.1)">
       <use xlink:href="#DejaVuSans-49"/>
       <use x="63.623047" xlink:href="#DejaVuSans-46"/>
       <use x="95.410156" xlink:href="#DejaVuSans-48"/>
      </g>
     </g>
    </g>
    <g id="text_25">
     <!-- train loss, precision, recall, F1 score -->
     <defs>
      <path d="M 18.3125 70.21875 
L 18.3125 54.6875 
L 36.8125 54.6875 
L 36.8125 47.703125 
L 18.3125 47.703125 
L 18.3125 18.015625 
Q 18.3125 11.328125 20.140625 9.421875 
Q 21.96875 7.515625 27.59375 7.515625 
L 36.8125 7.515625 
L 36.8125 0 
L 27.59375 0 
Q 17.1875 0 13.234375 3.875 
Q 9.28125 7.765625 9.28125 18.015625 
L 9.28125 47.703125 
L 2.6875 47.703125 
L 2.6875 54.6875 
L 9.28125 54.6875 
L 9.28125 70.21875 
z
" id="DejaVuSans-116"/>
      <path d="M 41.109375 46.296875 
Q 39.59375 47.171875 37.8125 47.578125 
Q 36.03125 48 33.890625 48 
Q 26.265625 48 22.1875 43.046875 
Q 18.109375 38.09375 18.109375 28.8125 
L 18.109375 0 
L 9.078125 0 
L 9.078125 54.6875 
L 18.109375 54.6875 
L 18.109375 46.1875 
Q 20.953125 51.171875 25.484375 53.578125 
Q 30.03125 56 36.53125 56 
Q 37.453125 56 38.578125 55.875 
Q 39.703125 55.765625 41.0625 55.515625 
z
" id="DejaVuSans-114"/>
      <path d="M 34.28125 27.484375 
Q 23.390625 27.484375 19.1875 25 
Q 14.984375 22.515625 14.984375 16.5 
Q 14.984375 11.71875 18.140625 8.90625 
Q 21.296875 6.109375 26.703125 6.109375 
Q 34.1875 6.109375 38.703125 11.40625 
Q 43.21875 16.703125 43.21875 25.484375 
L 43.21875 27.484375 
z
M 52.203125 31.203125 
L 52.203125 0 
L 43.21875 0 
L 43.21875 8.296875 
Q 40.140625 3.328125 35.546875 0.953125 
Q 30.953125 -1.421875 24.3125 -1.421875 
Q 15.921875 -1.421875 10.953125 3.296875 
Q 6 8.015625 6 15.921875 
Q 6 25.140625 12.171875 29.828125 
Q 18.359375 34.515625 30.609375 34.515625 
L 43.21875 34.515625 
L 43.21875 35.40625 
Q 43.21875 41.609375 39.140625 45 
Q 35.0625 48.390625 27.6875 48.390625 
Q 23 48.390625 18.546875 47.265625 
Q 14.109375 46.140625 10.015625 43.890625 
L 10.015625 52.203125 
Q 14.9375 54.109375 19.578125 55.046875 
Q 24.21875 56 28.609375 56 
Q 40.484375 56 46.34375 49.84375 
Q 52.203125 43.703125 52.203125 31.203125 
z
" id="DejaVuSans-97"/>
      <path d="M 9.421875 54.6875 
L 18.40625 54.6875 
L 18.40625 0 
L 9.421875 0 
z
M 9.421875 75.984375 
L 18.40625 75.984375 
L 18.40625 64.59375 
L 9.421875 64.59375 
z
" id="DejaVuSans-105"/>
      <path d="M 54.890625 33.015625 
L 54.890625 0 
L 45.90625 0 
L 45.90625 32.71875 
Q 45.90625 40.484375 42.875 44.328125 
Q 39.84375 48.1875 33.796875 48.1875 
Q 26.515625 48.1875 22.3125 43.546875 
Q 18.109375 38.921875 18.109375 30.90625 
L 18.109375 0 
L 9.078125 0 
L 9.078125 54.6875 
L 18.109375 54.6875 
L 18.109375 46.1875 
Q 21.34375 51.125 25.703125 53.5625 
Q 30.078125 56 35.796875 56 
Q 45.21875 56 50.046875 50.171875 
Q 54.890625 44.34375 54.890625 33.015625 
z
" id="DejaVuSans-110"/>
      <path id="DejaVuSans-32"/>
      <path d="M 9.421875 75.984375 
L 18.40625 75.984375 
L 18.40625 0 
L 9.421875 0 
z
" id="DejaVuSans-108"/>
      <path d="M 11.71875 12.40625 
L 22.015625 12.40625 
L 22.015625 4 
L 14.015625 -11.625 
L 7.71875 -11.625 
L 11.71875 4 
z
" id="DejaVuSans-44"/>
      <path d="M 9.8125 72.90625 
L 51.703125 72.90625 
L 51.703125 64.59375 
L 19.671875 64.59375 
L 19.671875 43.109375 
L 48.578125 43.109375 
L 48.578125 34.8125 
L 19.671875 34.8125 
L 19.671875 0 
L 9.8125 0 
z
" id="DejaVuSans-70"/>
     </defs>
     <g transform="translate(18.737187 257.270312)rotate(-90)scale(0.1 -0.1)">
      <use xlink:href="#DejaVuSans-116"/>
      <use x="39.208984" xlink:href="#DejaVuSans-114"/>
      <use x="80.322266" xlink:href="#DejaVuSans-97"/>
      <use x="141.601562" xlink:href="#DejaVuSans-105"/>
      <use x="169.384766" xlink:href="#DejaVuSans-110"/>
      <use x="232.763672" xlink:href="#DejaVuSans-32"/>
      <use x="264.550781" xlink:href="#DejaVuSans-108"/>
      <use x="292.333984" xlink:href="#DejaVuSans-111"/>
      <use x="353.515625" xlink:href="#DejaVuSans-115"/>
      <use x="405.615234" xlink:href="#DejaVuSans-115"/>
      <use x="457.714844" xlink:href="#DejaVuSans-44"/>
      <use x="489.501953" xlink:href="#DejaVuSans-32"/>
      <use x="521.289062" xlink:href="#DejaVuSans-112"/>
      <use x="584.765625" xlink:href="#DejaVuSans-114"/>
      <use x="625.847656" xlink:href="#DejaVuSans-101"/>
      <use x="687.371094" xlink:href="#DejaVuSans-99"/>
      <use x="742.351562" xlink:href="#DejaVuSans-105"/>
      <use x="770.134766" xlink:href="#DejaVuSans-115"/>
      <use x="822.234375" xlink:href="#DejaVuSans-105"/>
      <use x="850.017578" xlink:href="#DejaVuSans-111"/>
      <use x="911.199219" xlink:href="#DejaVuSans-110"/>
      <use x="974.578125" xlink:href="#DejaVuSans-44"/>
      <use x="1006.365234" xlink:href="#DejaVuSans-32"/>
      <use x="1038.152344" xlink:href="#DejaVuSans-114"/>
      <use x="1079.234375" xlink:href="#DejaVuSans-101"/>
      <use x="1140.757812" xlink:href="#DejaVuSans-99"/>
      <use x="1195.738281" xlink:href="#DejaVuSans-97"/>
      <use x="1257.017578" xlink:href="#DejaVuSans-108"/>
      <use x="1284.800781" xlink:href="#DejaVuSans-108"/>
      <use x="1312.583984" xlink:href="#DejaVuSans-44"/>
      <use x="1344.371094" xlink:href="#DejaVuSans-32"/>
      <use x="1376.158203" xlink:href="#DejaVuSans-70"/>
      <use x="1433.677734" xlink:href="#DejaVuSans-49"/>
      <use x="1497.300781" xlink:href="#DejaVuSans-32"/>
      <use x="1529.087891" xlink:href="#DejaVuSans-115"/>
      <use x="1581.1875" xlink:href="#DejaVuSans-99"/>
      <use x="1636.167969" xlink:href="#DejaVuSans-111"/>
      <use x="1697.349609" xlink:href="#DejaVuSans-114"/>
      <use x="1738.431641" xlink:href="#DejaVuSans-101"/>
     </g>
    </g>
   </g>
   <g id="line2d_24">
    <path clip-path="url(#p54e0fa1a59)" d="M 45.97 238.230506 
L 50.749013 281.129771 
L 55.528025 290.716025 
L 60.307038 293.237778 
L 65.08605 293.985866 
L 69.865063 295.992312 
L 74.644076 296.888273 
L 79.423088 298.687772 
L 84.202101 299.1706 
L 88.981113 300.791774 
L 93.760126 300.908537 
L 98.539139 301.832 
L 103.318151 301.755941 
L 108.097164 302.307715 
L 112.876176 303.101657 
L 117.655189 303.591122 
L 122.434202 303.639536 
L 127.213214 304.159555 
L 131.992227 304.132329 
L 136.771239 304.670515 
L 141.550252 305.12313 
L 146.329265 305.725603 
L 151.108277 305.330498 
L 155.88729 303.989174 
L 160.666303 304.931334 
L 165.445315 305.668349 
L 170.224328 305.881401 
L 175.00334 305.603349 
L 179.782353 306.223508 
L 184.561366 305.486598 
L 189.340378 306.597385 
L 194.119391 305.944688 
L 198.898403 306.00932 
L 203.677416 306.131845 
L 208.456429 306.557287 
L 213.235441 306.37533 
L 218.014454 307.123262 
L 222.793466 306.767543 
L 227.572479 306.587453 
L 232.351492 306.992626 
L 237.130504 306.82735 
L 241.909517 306.718633 
L 246.688529 307.257758 
L 251.467542 307.227496 
L 256.246555 306.474236 
L 261.025567 307.165898 
L 265.80458 306.731192 
L 270.583592 307.619704 
L 275.362605 307.070098 
L 280.141618 307.236968 
L 284.92063 307.381509 
L 289.699643 306.943505 
L 294.478655 307.462711 
L 299.257668 308.415587 
L 304.036681 307.548974 
L 308.815693 308.070372 
L 313.594706 308.489824 
L 318.373718 307.47621 
L 323.152731 308.057787 
L 327.931744 308.394144 
L 332.710756 308.917098 
L 337.489769 308.337841 
L 342.268782 307.782855 
L 347.047794 308.598995 
L 351.826807 308.131019 
L 356.605819 307.52036 
L 361.384832 308.915531 
L 366.163845 308.585683 
L 370.942857 308.645833 
L 375.72187 309.233147 
L 380.500882 309.374282 
L 385.279895 308.701532 
L 390.058908 309.267942 
L 394.83792 309.155807 
L 399.616933 308.790334 
L 404.395945 308.994364 
L 409.174958 309.025655 
L 413.953971 309.669185 
L 418.732983 309.080974 
L 423.511996 309.126144 
L 428.291008 309.269064 
L 433.070021 309.225252 
L 437.849034 309.284691 
L 442.628046 309.987132 
L 447.407059 309.20738 
L 452.186071 309.369506 
L 456.965084 309.512242 
L 461.744097 309.641762 
L 466.523109 309.750097 
L 471.302122 309.406523 
L 476.081134 309.463985 
L 480.860147 310.156051 
L 485.63916 309.413652 
L 490.418172 309.555612 
L 495.197185 310.29399 
L 499.976197 309.978078 
L 504.75521 310.428369 
L 509.534223 309.861294 
L 514.313235 309.596758 
L 519.092248 309.977217 
L 523.871261 309.493033 
L 528.650273 309.656024 
L 533.429286 310.655001 
L 538.208298 309.427039 
L 542.987311 310.261433 
L 547.766324 310.416117 
L 552.545336 310.836539 
L 557.324349 309.933268 
L 562.103361 310.483765 
L 566.882374 310.493175 
L 571.661387 309.828171 
L 576.440399 309.691015 
L 581.219412 310.057166 
L 585.998424 310.954091 
L 590.777437 310.425708 
L 595.55645 310.704107 
L 600.335462 310.467645 
L 605.114475 311.063261 
L 609.893487 310.441559 
L 614.6725 311.115745 
" style="fill:none;stroke:#ff0000;stroke-linecap:square;stroke-width:1.5;"/>
   </g>
   <g id="line2d_25">
    <path clip-path="url(#p54e0fa1a59)" d="M 45.97 319.79 
L 50.749013 319.79 
L 55.528025 315.722933 
L 60.307038 315.722933 
L 65.08605 315.493803 
L 69.865063 315.879359 
L 74.644076 315.432429 
L 79.423088 315.776447 
L 84.202101 315.237313 
L 88.981113 315.667973 
L 93.760126 315.369275 
L 98.539139 315.237313 
L 103.318151 315.304265 
L 108.097164 315.879359 
L 112.876176 315.667973 
L 117.655189 315.722933 
L 122.434202 315.828571 
L 127.213214 315.611507 
L 131.992227 315.493803 
L 136.771239 314.789508 
L 141.550252 315.304265 
L 146.329265 315.369275 
L 151.108277 310.948551 
L 155.88729 314.948254 
L 160.666303 314.343036 
L 165.445315 315.493803 
L 170.224328 314.948254 
L 175.00334 315.432429 
L 179.782353 315.369275 
L 184.561366 315.097231 
L 189.340378 314.62 
L 194.119391 315.097231 
L 198.898403 314.438596 
L 203.677416 315.023906 
L 208.456429 304.5385 
L 213.235441 301.847059 
L 218.014454 308.058077 
L 222.793466 308.896071 
L 227.572479 296.326154 
L 232.351492 289.287 
L 237.130504 218.113333 
L 241.909517 281.66125 
L 246.688529 197.778 
L 251.467542 276.214286 
L 256.246555 197.778 
L 261.025567 232.638571 
L 265.80458 243.5325 
L 270.583592 268.951667 
L 275.362605 218.113333 
L 280.141618 298.002143 
L 284.92063 243.5325 
L 289.699643 232.638571 
L 294.478655 116.436667 
L 299.257668 218.113333 
L 304.036681 197.778 
L 308.815693 232.638571 
L 313.594706 292.06 
L 318.373718 281.66125 
L 323.152731 167.275 
L 327.931744 167.275 
L 332.710756 116.436667 
L 337.489769 116.436667 
L 342.268782 243.5325 
L 347.047794 14.76 
L 351.826807 243.5325 
L 356.605819 116.436667 
L 361.384832 14.76 
L 366.163845 116.436667 
L 370.942857 167.275 
L 375.72187 243.5325 
L 380.500882 218.113333 
L 385.279895 167.275 
L 390.058908 243.5325 
L 394.83792 218.113333 
L 399.616933 218.113333 
L 404.395945 218.113333 
L 409.174958 167.275 
L 413.953971 167.275 
L 418.732983 243.5325 
L 423.511996 218.113333 
L 428.291008 218.113333 
L 433.070021 14.76 
L 437.849034 319.79 
L 442.628046 319.79 
L 447.407059 167.275 
L 452.186071 167.275 
L 456.965084 218.113333 
L 461.744097 319.79 
L 466.523109 319.79 
L 471.302122 14.76 
L 476.081134 319.79 
L 480.860147 319.79 
L 485.63916 319.79 
L 490.418172 319.79 
L 495.197185 14.76 
L 499.976197 167.275 
L 504.75521 319.79 
L 509.534223 319.79 
L 514.313235 243.5325 
L 519.092248 258.784 
L 523.871261 218.113333 
L 528.650273 167.275 
L 533.429286 14.76 
L 538.208298 14.76 
L 542.987311 14.76 
L 547.766324 14.76 
L 552.545336 319.79 
L 557.324349 14.76 
L 562.103361 167.275 
L 566.882374 167.275 
L 571.661387 14.76 
L 576.440399 319.79 
L 581.219412 14.76 
L 585.998424 14.76 
L 590.777437 319.79 
L 595.55645 319.79 
L 600.335462 319.79 
L 605.114475 218.113333 
L 609.893487 14.76 
L 614.6725 14.76 
" style="fill:none;stroke:#008000;stroke-linecap:square;stroke-width:1.5;"/>
   </g>
   <g id="line2d_26">
    <path clip-path="url(#p54e0fa1a59)" d="M 45.97 319.79 
L 50.749013 319.79 
L 55.528025 268.951667 
L 60.307038 268.951667 
L 65.08605 268.951667 
L 69.865063 268.951667 
L 74.644076 268.951667 
L 79.423088 268.951667 
L 84.202101 268.951667 
L 88.981113 268.951667 
L 93.760126 268.951667 
L 98.539139 268.951667 
L 103.318151 268.951667 
L 108.097164 268.951667 
L 112.876176 268.951667 
L 117.655189 268.951667 
L 122.434202 268.951667 
L 127.213214 268.951667 
L 131.992227 268.951667 
L 136.771239 268.951667 
L 141.550252 268.951667 
L 146.329265 268.951667 
L 151.108277 218.113333 
L 155.88729 268.951667 
L 160.666303 268.951667 
L 165.445315 268.951667 
L 170.224328 268.951667 
L 175.00334 268.951667 
L 179.782353 268.951667 
L 184.561366 268.951667 
L 189.340378 268.951667 
L 194.119391 268.951667 
L 198.898403 268.951667 
L 203.677416 268.951667 
L 208.456429 268.951667 
L 213.235441 268.951667 
L 218.014454 268.951667 
L 222.793466 268.951667 
L 227.572479 268.951667 
L 232.351492 268.951667 
L 237.130504 268.951667 
L 241.909517 268.951667 
L 246.688529 218.113333 
L 251.467542 268.951667 
L 256.246555 218.113333 
L 261.025567 218.113333 
L 265.80458 268.951667 
L 270.583592 268.951667 
L 275.362605 218.113333 
L 280.141618 268.951667 
L 284.92063 268.951667 
L 289.699643 218.113333 
L 294.478655 218.113333 
L 299.257668 218.113333 
L 304.036681 218.113333 
L 308.815693 218.113333 
L 313.594706 268.951667 
L 318.373718 268.951667 
L 323.152731 218.113333 
L 327.931744 218.113333 
L 332.710756 218.113333 
L 337.489769 218.113333 
L 342.268782 268.951667 
L 347.047794 218.113333 
L 351.826807 268.951667 
L 356.605819 218.113333 
L 361.384832 218.113333 
L 366.163845 218.113333 
L 370.942857 268.951667 
L 375.72187 268.951667 
L 380.500882 218.113333 
L 385.279895 268.951667 
L 390.058908 268.951667 
L 394.83792 268.951667 
L 399.616933 268.951667 
L 404.395945 218.113333 
L 409.174958 218.113333 
L 413.953971 268.951667 
L 418.732983 268.951667 
L 423.511996 268.951667 
L 428.291008 268.951667 
L 433.070021 218.113333 
L 437.849034 319.79 
L 442.628046 319.79 
L 447.407059 268.951667 
L 452.186071 268.951667 
L 456.965084 268.951667 
L 461.744097 319.79 
L 466.523109 319.79 
L 471.302122 268.951667 
L 476.081134 319.79 
L 480.860147 319.79 
L 485.63916 319.79 
L 490.418172 319.79 
L 495.197185 268.951667 
L 499.976197 268.951667 
L 504.75521 319.79 
L 509.534223 319.79 
L 514.313235 268.951667 
L 519.092248 268.951667 
L 523.871261 268.951667 
L 528.650273 268.951667 
L 533.429286 268.951667 
L 538.208298 268.951667 
L 542.987311 268.951667 
L 547.766324 268.951667 
L 552.545336 319.79 
L 557.324349 268.951667 
L 562.103361 268.951667 
L 566.882374 268.951667 
L 571.661387 268.951667 
L 576.440399 319.79 
L 581.219412 268.951667 
L 585.998424 268.951667 
L 590.777437 319.79 
L 595.55645 319.79 
L 600.335462 319.79 
L 605.114475 218.113333 
L 609.893487 268.951667 
L 614.6725 268.951667 
" style="fill:none;stroke:#0000ff;stroke-linecap:square;stroke-width:1.5;"/>
   </g>
   <g id="line2d_27">
    <path clip-path="url(#p54e0fa1a59)" d="M 45.97 319.79 
L 50.749013 319.79 
L 55.528025 312.258395 
L 60.307038 312.258395 
L 65.08605 311.867143 
L 69.865063 312.527381 
L 74.644076 311.762895 
L 79.423088 312.350244 
L 84.202101 311.433014 
L 88.981113 312.16425 
L 93.760126 311.655867 
L 98.539139 311.433014 
L 103.318151 311.545946 
L 108.097164 312.527381 
L 112.876176 312.16425 
L 117.655189 312.258395 
L 122.434202 312.43988 
L 127.213214 312.067722 
L 131.992227 311.867143 
L 136.771239 310.684627 
L 141.550252 311.545946 
L 146.329265 311.655867 
L 151.108277 303.521733 
L 155.88729 310.948551 
L 160.666303 309.950323 
L 165.445315 311.867143 
L 170.224328 310.948551 
L 175.00334 311.762895 
L 179.782353 311.655867 
L 184.561366 311.197606 
L 189.340378 310.404462 
L 194.119391 311.197606 
L 198.898403 310.106508 
L 203.677416 311.074857 
L 208.456429 296.326154 
L 213.235441 293.265652 
L 218.014454 300.725625 
L 222.793466 301.847059 
L 227.572479 287.681579 
L 232.351492 281.66125 
L 237.130504 252.005556 
L 241.909517 276.214286 
L 246.688529 208.87 
L 251.467542 272.862308 
L 256.246555 208.87 
L 261.025567 225.934615 
L 265.80458 258.784 
L 270.583592 268.951667 
L 275.362605 218.113333 
L 280.141618 289.287 
L 284.92063 258.784 
L 289.699643 225.934615 
L 294.478655 184.221111 
L 299.257668 218.113333 
L 304.036681 208.87 
L 308.815693 225.934615 
L 313.594706 283.904118 
L 318.373718 276.214286 
L 323.152731 197.778 
L 327.931744 197.778 
L 332.710756 184.221111 
L 337.489769 184.221111 
L 342.268782 258.784 
L 347.047794 167.275 
L 351.826807 258.784 
L 356.605819 184.221111 
L 361.384832 167.275 
L 366.163845 184.221111 
L 370.942857 243.5325 
L 375.72187 258.784 
L 380.500882 218.113333 
L 385.279895 243.5325 
L 390.058908 258.784 
L 394.83792 252.005556 
L 399.616933 252.005556 
L 404.395945 218.113333 
L 409.174958 197.778 
L 413.953971 243.5325 
L 418.732983 258.784 
L 423.511996 252.005556 
L 428.291008 252.005556 
L 433.070021 167.275 
L 437.849034 319.79 
L 442.628046 319.79 
L 447.407059 243.5325 
L 452.186071 243.5325 
L 456.965084 252.005556 
L 461.744097 319.79 
L 466.523109 319.79 
L 471.302122 232.638571 
L 476.081134 319.79 
L 480.860147 319.79 
L 485.63916 319.79 
L 490.418172 319.79 
L 495.197185 232.638571 
L 499.976197 243.5325 
L 504.75521 319.79 
L 509.534223 319.79 
L 514.313235 258.784 
L 519.092248 264.33 
L 523.871261 252.005556 
L 528.650273 243.5325 
L 533.429286 232.638571 
L 538.208298 232.638571 
L 542.987311 232.638571 
L 547.766324 232.638571 
L 552.545336 319.79 
L 557.324349 232.638571 
L 562.103361 243.5325 
L 566.882374 243.5325 
L 571.661387 232.638571 
L 576.440399 319.79 
L 581.219412 232.638571 
L 585.998424 232.638571 
L 590.777437 319.79 
L 595.55645 319.79 
L 600.335462 319.79 
L 605.114475 218.113333 
L 609.893487 232.638571 
L 614.6725 232.638571 
" style="fill:none;stroke:#bf00bf;stroke-linecap:square;stroke-width:1.5;"/>
   </g>
   <g id="patch_3">
    <path d="M 45.97 319.79 
L 45.97 14.76 
" style="fill:none;stroke:#000000;stroke-linecap:square;stroke-linejoin:miter;stroke-width:0.8;"/>
   </g>
   <g id="patch_4">
    <path d="M 614.6725 319.79 
L 614.6725 14.76 
" style="fill:none;stroke:#000000;stroke-linecap:square;stroke-linejoin:miter;stroke-width:0.8;"/>
   </g>
   <g id="patch_5">
    <path d="M 45.97 319.79 
L 614.6725 319.79 
" style="fill:none;stroke:#000000;stroke-linecap:square;stroke-linejoin:miter;stroke-width:0.8;"/>
   </g>
   <g id="patch_6">
    <path d="M 45.97 14.76 
L 614.6725 14.76 
" style="fill:none;stroke:#000000;stroke-linecap:square;stroke-linejoin:miter;stroke-width:0.8;"/>
   </g>
   <g id="legend_1">
    <g id="patch_7">
     <path d="M 627.359525 198.13125 
L 707.2939 198.13125 
Q 709.2939 198.13125 709.2939 196.13125 
L 709.2939 138.41875 
Q 709.2939 136.41875 707.2939 136.41875 
L 627.359525 136.41875 
Q 625.359525 136.41875 625.359525 138.41875 
L 625.359525 196.13125 
Q 625.359525 198.13125 627.359525 198.13125 
z
" style="fill:#ffffff;opacity:0.8;stroke:#000000;stroke-linejoin:miter;"/>
    </g>
    <g id="line2d_28">
     <path d="M 629.359525 144.517187 
L 649.359525 144.517187 
" style="fill:none;stroke:#ff0000;stroke-linecap:square;stroke-width:1.5;"/>
    </g>
    <g id="line2d_29"/>
    <g id="text_26">
     <!-- Train loss -->
     <defs>
      <path d="M -0.296875 72.90625 
L 61.375 72.90625 
L 61.375 64.59375 
L 35.5 64.59375 
L 35.5 0 
L 25.59375 0 
L 25.59375 64.59375 
L -0.296875 64.59375 
z
" id="DejaVuSans-84"/>
     </defs>
     <g transform="translate(657.359525 148.017187)scale(0.1 -0.1)">
      <use xlink:href="#DejaVuSans-84"/>
      <use x="60.865234" xlink:href="#DejaVuSans-114"/>
      <use x="101.978516" xlink:href="#DejaVuSans-97"/>
      <use x="163.257812" xlink:href="#DejaVuSans-105"/>
      <use x="191.041016" xlink:href="#DejaVuSans-110"/>
      <use x="254.419922" xlink:href="#DejaVuSans-32"/>
      <use x="286.207031" xlink:href="#DejaVuSans-108"/>
      <use x="313.990234" xlink:href="#DejaVuSans-111"/>
      <use x="375.171875" xlink:href="#DejaVuSans-115"/>
      <use x="427.271484" xlink:href="#DejaVuSans-115"/>
     </g>
    </g>
    <g id="line2d_30">
     <path d="M 629.359525 159.195312 
L 649.359525 159.195312 
" style="fill:none;stroke:#008000;stroke-linecap:square;stroke-width:1.5;"/>
    </g>
    <g id="line2d_31"/>
    <g id="text_27">
     <!-- Precision -->
     <defs>
      <path d="M 19.671875 64.796875 
L 19.671875 37.40625 
L 32.078125 37.40625 
Q 38.96875 37.40625 42.71875 40.96875 
Q 46.484375 44.53125 46.484375 51.125 
Q 46.484375 57.671875 42.71875 61.234375 
Q 38.96875 64.796875 32.078125 64.796875 
z
M 9.8125 72.90625 
L 32.078125 72.90625 
Q 44.34375 72.90625 50.609375 67.359375 
Q 56.890625 61.8125 56.890625 51.125 
Q 56.890625 40.328125 50.609375 34.8125 
Q 44.34375 29.296875 32.078125 29.296875 
L 19.671875 29.296875 
L 19.671875 0 
L 9.8125 0 
z
" id="DejaVuSans-80"/>
     </defs>
     <g transform="translate(657.359525 162.695312)scale(0.1 -0.1)">
      <use xlink:href="#DejaVuSans-80"/>
      <use x="60.287109" xlink:href="#DejaVuSans-114"/>
      <use x="101.369141" xlink:href="#DejaVuSans-101"/>
      <use x="162.892578" xlink:href="#DejaVuSans-99"/>
      <use x="217.873047" xlink:href="#DejaVuSans-105"/>
      <use x="245.65625" xlink:href="#DejaVuSans-115"/>
      <use x="297.755859" xlink:href="#DejaVuSans-105"/>
      <use x="325.539062" xlink:href="#DejaVuSans-111"/>
      <use x="386.720703" xlink:href="#DejaVuSans-110"/>
     </g>
    </g>
    <g id="line2d_32">
     <path d="M 629.359525 173.873437 
L 649.359525 173.873437 
" style="fill:none;stroke:#0000ff;stroke-linecap:square;stroke-width:1.5;"/>
    </g>
    <g id="line2d_33"/>
    <g id="text_28">
     <!-- Recall -->
     <defs>
      <path d="M 44.390625 34.1875 
Q 47.5625 33.109375 50.5625 29.59375 
Q 53.5625 26.078125 56.59375 19.921875 
L 66.609375 0 
L 56 0 
L 46.6875 18.703125 
Q 43.0625 26.03125 39.671875 28.421875 
Q 36.28125 30.8125 30.421875 30.8125 
L 19.671875 30.8125 
L 19.671875 0 
L 9.8125 0 
L 9.8125 72.90625 
L 32.078125 72.90625 
Q 44.578125 72.90625 50.734375 67.671875 
Q 56.890625 62.453125 56.890625 51.90625 
Q 56.890625 45.015625 53.6875 40.46875 
Q 50.484375 35.9375 44.390625 34.1875 
z
M 19.671875 64.796875 
L 19.671875 38.921875 
L 32.078125 38.921875 
Q 39.203125 38.921875 42.84375 42.21875 
Q 46.484375 45.515625 46.484375 51.90625 
Q 46.484375 58.296875 42.84375 61.546875 
Q 39.203125 64.796875 32.078125 64.796875 
z
" id="DejaVuSans-82"/>
     </defs>
     <g transform="translate(657.359525 177.373437)scale(0.1 -0.1)">
      <use xlink:href="#DejaVuSans-82"/>
      <use x="69.419922" xlink:href="#DejaVuSans-101"/>
      <use x="130.943359" xlink:href="#DejaVuSans-99"/>
      <use x="185.923828" xlink:href="#DejaVuSans-97"/>
      <use x="247.203125" xlink:href="#DejaVuSans-108"/>
      <use x="274.986328" xlink:href="#DejaVuSans-108"/>
     </g>
    </g>
    <g id="line2d_34">
     <path d="M 629.359525 188.551562 
L 649.359525 188.551562 
" style="fill:none;stroke:#bf00bf;stroke-linecap:square;stroke-width:1.5;"/>
    </g>
    <g id="line2d_35"/>
    <g id="text_29">
     <!-- F1 score -->
     <g transform="translate(657.359525 192.051562)scale(0.1 -0.1)">
      <use xlink:href="#DejaVuSans-70"/>
      <use x="57.519531" xlink:href="#DejaVuSans-49"/>
      <use x="121.142578" xlink:href="#DejaVuSans-32"/>
      <use x="152.929688" xlink:href="#DejaVuSans-115"/>
      <use x="205.029297" xlink:href="#DejaVuSans-99"/>
      <use x="260.009766" xlink:href="#DejaVuSans-111"/>
      <use x="321.191406" xlink:href="#DejaVuSans-114"/>
      <use x="362.273438" xlink:href="#DejaVuSans-101"/>
     </g>
    </g>
   </g>
  </g>
 </g>
 <defs>
  <clipPath id="p54e0fa1a59">
   <rect height="305.03" width="568.7025" x="45.97" y="14.76"/>
  </clipPath>
 </defs>
</svg>
