<?xml version="1.0" encoding="utf-8" standalone="no"?>
<!DOCTYPE svg PUBLIC "-//W3C//DTD SVG 1.1//EN"
  "http://www.w3.org/Graphics/SVG/1.1/DTD/svg11.dtd">
<!-- Created with matplotlib (https://matplotlib.org/) -->
<svg height="360pt" version="1.1" viewBox="0 0 720 360" width="720pt" xmlns="http://www.w3.org/2000/svg" xmlns:xlink="http://www.w3.org/1999/xlink">
 <defs>
  <style type="text/css">
*{stroke-linecap:butt;stroke-linejoin:round;}
  </style>
 </defs>
 <g id="figure_1">
  <g id="patch_1">
   <path d="M 0 360 
L 720 360 
L 720 0 
L 0 0 
z
" style="fill:#ffffff;"/>
  </g>
  <g id="axes_1">
   <g id="patch_2">
    <path d="M 45.97 319.79 
L 614.6725 319.79 
L 614.6725 14.76 
L 45.97 14.76 
z
" style="fill:#ffffff;"/>
   </g>
   <g id="matplotlib.axis_1">
    <g id="xtick_1">
     <g id="line2d_1">
      <defs>
       <path d="M 0 1.75 
L 0 -1.75 
" id="mfbfb7361c2" style="stroke:#000000;stroke-width:0.8;"/>
      </defs>
      <g>
       <use style="stroke:#000000;stroke-width:0.8;" x="45.97" xlink:href="#mfbfb7361c2" y="319.79"/>
      </g>
     </g>
     <g id="text_1">
      <!-- 0 -->
      <defs>
       <path d="M 31.78125 66.40625 
Q 24.171875 66.40625 20.328125 58.90625 
Q 16.5 51.421875 16.5 36.375 
Q 16.5 21.390625 20.328125 13.890625 
Q 24.171875 6.390625 31.78125 6.390625 
Q 39.453125 6.390625 43.28125 13.890625 
Q 47.125 21.390625 47.125 36.375 
Q 47.125 51.421875 43.28125 58.90625 
Q 39.453125 66.40625 31.78125 66.40625 
z
M 31.78125 74.21875 
Q 44.046875 74.21875 50.515625 64.515625 
Q 56.984375 54.828125 56.984375 36.375 
Q 56.984375 17.96875 50.515625 8.265625 
Q 44.046875 -1.421875 31.78125 -1.421875 
Q 19.53125 -1.421875 13.0625 8.265625 
Q 6.59375 17.96875 6.59375 36.375 
Q 6.59375 54.828125 13.0625 64.515625 
Q 19.53125 74.21875 31.78125 74.21875 
z
" id="DejaVuSans-48"/>
      </defs>
      <g transform="translate(42.78875 332.638438)scale(0.1 -0.1)">
       <use xlink:href="#DejaVuSans-48"/>
      </g>
     </g>
    </g>
    <g id="xtick_2">
     <g id="line2d_2">
      <g>
       <use style="stroke:#000000;stroke-width:0.8;" x="93.760126" xlink:href="#mfbfb7361c2" y="319.79"/>
      </g>
     </g>
     <g id="text_2">
      <!-- 10 -->
      <defs>
       <path d="M 12.40625 8.296875 
L 28.515625 8.296875 
L 28.515625 63.921875 
L 10.984375 60.40625 
L 10.984375 69.390625 
L 28.421875 72.90625 
L 38.28125 72.90625 
L 38.28125 8.296875 
L 54.390625 8.296875 
L 54.390625 0 
L 12.40625 0 
z
" id="DejaVuSans-49"/>
      </defs>
      <g transform="translate(87.397626 332.638438)scale(0.1 -0.1)">
       <use xlink:href="#DejaVuSans-49"/>
       <use x="63.623047" xlink:href="#DejaVuSans-48"/>
      </g>
     </g>
    </g>
    <g id="xtick_3">
     <g id="line2d_3">
      <g>
       <use style="stroke:#000000;stroke-width:0.8;" x="141.550252" xlink:href="#mfbfb7361c2" y="319.79"/>
      </g>
     </g>
     <g id="text_3">
      <!-- 20 -->
      <defs>
       <path d="M 19.1875 8.296875 
L 53.609375 8.296875 
L 53.609375 0 
L 7.328125 0 
L 7.328125 8.296875 
Q 12.9375 14.109375 22.625 23.890625 
Q 32.328125 33.6875 34.8125 36.53125 
Q 39.546875 41.84375 41.421875 45.53125 
Q 43.3125 49.21875 43.3125 52.78125 
Q 43.3125 58.59375 39.234375 62.25 
Q 35.15625 65.921875 28.609375 65.921875 
Q 23.96875 65.921875 18.8125 64.3125 
Q 13.671875 62.703125 7.8125 59.421875 
L 7.8125 69.390625 
Q 13.765625 71.78125 18.9375 73 
Q 24.125 74.21875 28.421875 74.21875 
Q 39.75 74.21875 46.484375 68.546875 
Q 53.21875 62.890625 53.21875 53.421875 
Q 53.21875 48.921875 51.53125 44.890625 
Q 49.859375 40.875 45.40625 35.40625 
Q 44.1875 33.984375 37.640625 27.21875 
Q 31.109375 20.453125 19.1875 8.296875 
z
" id="DejaVuSans-50"/>
      </defs>
      <g transform="translate(135.187752 332.638438)scale(0.1 -0.1)">
       <use xlink:href="#DejaVuSans-50"/>
       <use x="63.623047" xlink:href="#DejaVuSans-48"/>
      </g>
     </g>
    </g>
    <g id="xtick_4">
     <g id="line2d_4">
      <g>
       <use style="stroke:#000000;stroke-width:0.8;" x="189.340378" xlink:href="#mfbfb7361c2" y="319.79"/>
      </g>
     </g>
     <g id="text_4">
      <!-- 30 -->
      <defs>
       <path d="M 40.578125 39.3125 
Q 47.65625 37.796875 51.625 33 
Q 55.609375 28.21875 55.609375 21.1875 
Q 55.609375 10.40625 48.1875 4.484375 
Q 40.765625 -1.421875 27.09375 -1.421875 
Q 22.515625 -1.421875 17.65625 -0.515625 
Q 12.796875 0.390625 7.625 2.203125 
L 7.625 11.71875 
Q 11.71875 9.328125 16.59375 8.109375 
Q 21.484375 6.890625 26.8125 6.890625 
Q 36.078125 6.890625 40.9375 10.546875 
Q 45.796875 14.203125 45.796875 21.1875 
Q 45.796875 27.640625 41.28125 31.265625 
Q 36.765625 34.90625 28.71875 34.90625 
L 20.21875 34.90625 
L 20.21875 43.015625 
L 29.109375 43.015625 
Q 36.375 43.015625 40.234375 45.921875 
Q 44.09375 48.828125 44.09375 54.296875 
Q 44.09375 59.90625 40.109375 62.90625 
Q 36.140625 65.921875 28.71875 65.921875 
Q 24.65625 65.921875 20.015625 65.03125 
Q 15.375 64.15625 9.8125 62.3125 
L 9.8125 71.09375 
Q 15.4375 72.65625 20.34375 73.4375 
Q 25.25 74.21875 29.59375 74.21875 
Q 40.828125 74.21875 47.359375 69.109375 
Q 53.90625 64.015625 53.90625 55.328125 
Q 53.90625 49.265625 50.4375 45.09375 
Q 46.96875 40.921875 40.578125 39.3125 
z
" id="DejaVuSans-51"/>
      </defs>
      <g transform="translate(182.977878 332.638438)scale(0.1 -0.1)">
       <use xlink:href="#DejaVuSans-51"/>
       <use x="63.623047" xlink:href="#DejaVuSans-48"/>
      </g>
     </g>
    </g>
    <g id="xtick_5">
     <g id="line2d_5">
      <g>
       <use style="stroke:#000000;stroke-width:0.8;" x="237.130504" xlink:href="#mfbfb7361c2" y="319.79"/>
      </g>
     </g>
     <g id="text_5">
      <!-- 40 -->
      <defs>
       <path d="M 37.796875 64.3125 
L 12.890625 25.390625 
L 37.796875 25.390625 
z
M 35.203125 72.90625 
L 47.609375 72.90625 
L 47.609375 25.390625 
L 58.015625 25.390625 
L 58.015625 17.1875 
L 47.609375 17.1875 
L 47.609375 0 
L 37.796875 0 
L 37.796875 17.1875 
L 4.890625 17.1875 
L 4.890625 26.703125 
z
" id="DejaVuSans-52"/>
      </defs>
      <g transform="translate(230.768004 332.638438)scale(0.1 -0.1)">
       <use xlink:href="#DejaVuSans-52"/>
       <use x="63.623047" xlink:href="#DejaVuSans-48"/>
      </g>
     </g>
    </g>
    <g id="xtick_6">
     <g id="line2d_6">
      <g>
       <use style="stroke:#000000;stroke-width:0.8;" x="284.92063" xlink:href="#mfbfb7361c2" y="319.79"/>
      </g>
     </g>
     <g id="text_6">
      <!-- 50 -->
      <defs>
       <path d="M 10.796875 72.90625 
L 49.515625 72.90625 
L 49.515625 64.59375 
L 19.828125 64.59375 
L 19.828125 46.734375 
Q 21.96875 47.46875 24.109375 47.828125 
Q 26.265625 48.1875 28.421875 48.1875 
Q 40.625 48.1875 47.75 41.5 
Q 54.890625 34.8125 54.890625 23.390625 
Q 54.890625 11.625 47.5625 5.09375 
Q 40.234375 -1.421875 26.90625 -1.421875 
Q 22.3125 -1.421875 17.546875 -0.640625 
Q 12.796875 0.140625 7.71875 1.703125 
L 7.71875 11.625 
Q 12.109375 9.234375 16.796875 8.0625 
Q 21.484375 6.890625 26.703125 6.890625 
Q 35.15625 6.890625 40.078125 11.328125 
Q 45.015625 15.765625 45.015625 23.390625 
Q 45.015625 31 40.078125 35.4375 
Q 35.15625 39.890625 26.703125 39.890625 
Q 22.75 39.890625 18.8125 39.015625 
Q 14.890625 38.140625 10.796875 36.28125 
z
" id="DejaVuSans-53"/>
      </defs>
      <g transform="translate(278.55813 332.638438)scale(0.1 -0.1)">
       <use xlink:href="#DejaVuSans-53"/>
       <use x="63.623047" xlink:href="#DejaVuSans-48"/>
      </g>
     </g>
    </g>
    <g id="xtick_7">
     <g id="line2d_7">
      <g>
       <use style="stroke:#000000;stroke-width:0.8;" x="332.710756" xlink:href="#mfbfb7361c2" y="319.79"/>
      </g>
     </g>
     <g id="text_7">
      <!-- 60 -->
      <defs>
       <path d="M 33.015625 40.375 
Q 26.375 40.375 22.484375 35.828125 
Q 18.609375 31.296875 18.609375 23.390625 
Q 18.609375 15.53125 22.484375 10.953125 
Q 26.375 6.390625 33.015625 6.390625 
Q 39.65625 6.390625 43.53125 10.953125 
Q 47.40625 15.53125 47.40625 23.390625 
Q 47.40625 31.296875 43.53125 35.828125 
Q 39.65625 40.375 33.015625 40.375 
z
M 52.59375 71.296875 
L 52.59375 62.3125 
Q 48.875 64.0625 45.09375 64.984375 
Q 41.3125 65.921875 37.59375 65.921875 
Q 27.828125 65.921875 22.671875 59.328125 
Q 17.53125 52.734375 16.796875 39.40625 
Q 19.671875 43.65625 24.015625 45.921875 
Q 28.375 48.1875 33.59375 48.1875 
Q 44.578125 48.1875 50.953125 41.515625 
Q 57.328125 34.859375 57.328125 23.390625 
Q 57.328125 12.15625 50.6875 5.359375 
Q 44.046875 -1.421875 33.015625 -1.421875 
Q 20.359375 -1.421875 13.671875 8.265625 
Q 6.984375 17.96875 6.984375 36.375 
Q 6.984375 53.65625 15.1875 63.9375 
Q 23.390625 74.21875 37.203125 74.21875 
Q 40.921875 74.21875 44.703125 73.484375 
Q 48.484375 72.75 52.59375 71.296875 
z
" id="DejaVuSans-54"/>
      </defs>
      <g transform="translate(326.348256 332.638438)scale(0.1 -0.1)">
       <use xlink:href="#DejaVuSans-54"/>
       <use x="63.623047" xlink:href="#DejaVuSans-48"/>
      </g>
     </g>
    </g>
    <g id="xtick_8">
     <g id="line2d_8">
      <g>
       <use style="stroke:#000000;stroke-width:0.8;" x="380.500882" xlink:href="#mfbfb7361c2" y="319.79"/>
      </g>
     </g>
     <g id="text_8">
      <!-- 70 -->
      <defs>
       <path d="M 8.203125 72.90625 
L 55.078125 72.90625 
L 55.078125 68.703125 
L 28.609375 0 
L 18.3125 0 
L 43.21875 64.59375 
L 8.203125 64.59375 
z
" id="DejaVuSans-55"/>
      </defs>
      <g transform="translate(374.138382 332.638438)scale(0.1 -0.1)">
       <use xlink:href="#DejaVuSans-55"/>
       <use x="63.623047" xlink:href="#DejaVuSans-48"/>
      </g>
     </g>
    </g>
    <g id="xtick_9">
     <g id="line2d_9">
      <g>
       <use style="stroke:#000000;stroke-width:0.8;" x="428.291008" xlink:href="#mfbfb7361c2" y="319.79"/>
      </g>
     </g>
     <g id="text_9">
      <!-- 80 -->
      <defs>
       <path d="M 31.78125 34.625 
Q 24.75 34.625 20.71875 30.859375 
Q 16.703125 27.09375 16.703125 20.515625 
Q 16.703125 13.921875 20.71875 10.15625 
Q 24.75 6.390625 31.78125 6.390625 
Q 38.8125 6.390625 42.859375 10.171875 
Q 46.921875 13.96875 46.921875 20.515625 
Q 46.921875 27.09375 42.890625 30.859375 
Q 38.875 34.625 31.78125 34.625 
z
M 21.921875 38.8125 
Q 15.578125 40.375 12.03125 44.71875 
Q 8.5 49.078125 8.5 55.328125 
Q 8.5 64.0625 14.71875 69.140625 
Q 20.953125 74.21875 31.78125 74.21875 
Q 42.671875 74.21875 48.875 69.140625 
Q 55.078125 64.0625 55.078125 55.328125 
Q 55.078125 49.078125 51.53125 44.71875 
Q 48 40.375 41.703125 38.8125 
Q 48.828125 37.15625 52.796875 32.3125 
Q 56.78125 27.484375 56.78125 20.515625 
Q 56.78125 9.90625 50.3125 4.234375 
Q 43.84375 -1.421875 31.78125 -1.421875 
Q 19.734375 -1.421875 13.25 4.234375 
Q 6.78125 9.90625 6.78125 20.515625 
Q 6.78125 27.484375 10.78125 32.3125 
Q 14.796875 37.15625 21.921875 38.8125 
z
M 18.3125 54.390625 
Q 18.3125 48.734375 21.84375 45.5625 
Q 25.390625 42.390625 31.78125 42.390625 
Q 38.140625 42.390625 41.71875 45.5625 
Q 45.3125 48.734375 45.3125 54.390625 
Q 45.3125 60.0625 41.71875 63.234375 
Q 38.140625 66.40625 31.78125 66.40625 
Q 25.390625 66.40625 21.84375 63.234375 
Q 18.3125 60.0625 18.3125 54.390625 
z
" id="DejaVuSans-56"/>
      </defs>
      <g transform="translate(421.928508 332.638438)scale(0.1 -0.1)">
       <use xlink:href="#DejaVuSans-56"/>
       <use x="63.623047" xlink:href="#DejaVuSans-48"/>
      </g>
     </g>
    </g>
    <g id="xtick_10">
     <g id="line2d_10">
      <g>
       <use style="stroke:#000000;stroke-width:0.8;" x="476.081134" xlink:href="#mfbfb7361c2" y="319.79"/>
      </g>
     </g>
     <g id="text_10">
      <!-- 90 -->
      <defs>
       <path d="M 10.984375 1.515625 
L 10.984375 10.5 
Q 14.703125 8.734375 18.5 7.8125 
Q 22.3125 6.890625 25.984375 6.890625 
Q 35.75 6.890625 40.890625 13.453125 
Q 46.046875 20.015625 46.78125 33.40625 
Q 43.953125 29.203125 39.59375 26.953125 
Q 35.25 24.703125 29.984375 24.703125 
Q 19.046875 24.703125 12.671875 31.3125 
Q 6.296875 37.9375 6.296875 49.421875 
Q 6.296875 60.640625 12.9375 67.421875 
Q 19.578125 74.21875 30.609375 74.21875 
Q 43.265625 74.21875 49.921875 64.515625 
Q 56.59375 54.828125 56.59375 36.375 
Q 56.59375 19.140625 48.40625 8.859375 
Q 40.234375 -1.421875 26.421875 -1.421875 
Q 22.703125 -1.421875 18.890625 -0.6875 
Q 15.09375 0.046875 10.984375 1.515625 
z
M 30.609375 32.421875 
Q 37.25 32.421875 41.125 36.953125 
Q 45.015625 41.5 45.015625 49.421875 
Q 45.015625 57.28125 41.125 61.84375 
Q 37.25 66.40625 30.609375 66.40625 
Q 23.96875 66.40625 20.09375 61.84375 
Q 16.21875 57.28125 16.21875 49.421875 
Q 16.21875 41.5 20.09375 36.953125 
Q 23.96875 32.421875 30.609375 32.421875 
z
" id="DejaVuSans-57"/>
      </defs>
      <g transform="translate(469.718634 332.638438)scale(0.1 -0.1)">
       <use xlink:href="#DejaVuSans-57"/>
       <use x="63.623047" xlink:href="#DejaVuSans-48"/>
      </g>
     </g>
    </g>
    <g id="xtick_11">
     <g id="line2d_11">
      <g>
       <use style="stroke:#000000;stroke-width:0.8;" x="523.871261" xlink:href="#mfbfb7361c2" y="319.79"/>
      </g>
     </g>
     <g id="text_11">
      <!-- 100 -->
      <g transform="translate(514.327511 332.638438)scale(0.1 -0.1)">
       <use xlink:href="#DejaVuSans-49"/>
       <use x="63.623047" xlink:href="#DejaVuSans-48"/>
       <use x="127.246094" xlink:href="#DejaVuSans-48"/>
      </g>
     </g>
    </g>
    <g id="xtick_12">
     <g id="line2d_12">
      <g>
       <use style="stroke:#000000;stroke-width:0.8;" x="571.661387" xlink:href="#mfbfb7361c2" y="319.79"/>
      </g>
     </g>
     <g id="text_12">
      <!-- 110 -->
      <g transform="translate(562.117637 332.638438)scale(0.1 -0.1)">
       <use xlink:href="#DejaVuSans-49"/>
       <use x="63.623047" xlink:href="#DejaVuSans-49"/>
       <use x="127.246094" xlink:href="#DejaVuSans-48"/>
      </g>
     </g>
    </g>
    <g id="text_13">
     <!-- epochs -->
     <defs>
      <path d="M 56.203125 29.59375 
L 56.203125 25.203125 
L 14.890625 25.203125 
Q 15.484375 15.921875 20.484375 11.0625 
Q 25.484375 6.203125 34.421875 6.203125 
Q 39.59375 6.203125 44.453125 7.46875 
Q 49.3125 8.734375 54.109375 11.28125 
L 54.109375 2.78125 
Q 49.265625 0.734375 44.1875 -0.34375 
Q 39.109375 -1.421875 33.890625 -1.421875 
Q 20.796875 -1.421875 13.15625 6.1875 
Q 5.515625 13.8125 5.515625 26.8125 
Q 5.515625 40.234375 12.765625 48.109375 
Q 20.015625 56 32.328125 56 
Q 43.359375 56 49.78125 48.890625 
Q 56.203125 41.796875 56.203125 29.59375 
z
M 47.21875 32.234375 
Q 47.125 39.59375 43.09375 43.984375 
Q 39.0625 48.390625 32.421875 48.390625 
Q 24.90625 48.390625 20.390625 44.140625 
Q 15.875 39.890625 15.1875 32.171875 
z
" id="DejaVuSans-101"/>
      <path d="M 18.109375 8.203125 
L 18.109375 -20.796875 
L 9.078125 -20.796875 
L 9.078125 54.6875 
L 18.109375 54.6875 
L 18.109375 46.390625 
Q 20.953125 51.265625 25.265625 53.625 
Q 29.59375 56 35.59375 56 
Q 45.5625 56 51.78125 48.09375 
Q 58.015625 40.1875 58.015625 27.296875 
Q 58.015625 14.40625 51.78125 6.484375 
Q 45.5625 -1.421875 35.59375 -1.421875 
Q 29.59375 -1.421875 25.265625 0.953125 
Q 20.953125 3.328125 18.109375 8.203125 
z
M 48.6875 27.296875 
Q 48.6875 37.203125 44.609375 42.84375 
Q 40.53125 48.484375 33.40625 48.484375 
Q 26.265625 48.484375 22.1875 42.84375 
Q 18.109375 37.203125 18.109375 27.296875 
Q 18.109375 17.390625 22.1875 11.75 
Q 26.265625 6.109375 33.40625 6.109375 
Q 40.53125 6.109375 44.609375 11.75 
Q 48.6875 17.390625 48.6875 27.296875 
z
" id="DejaVuSans-112"/>
      <path d="M 30.609375 48.390625 
Q 23.390625 48.390625 19.1875 42.75 
Q 14.984375 37.109375 14.984375 27.296875 
Q 14.984375 17.484375 19.15625 11.84375 
Q 23.34375 6.203125 30.609375 6.203125 
Q 37.796875 6.203125 41.984375 11.859375 
Q 46.1875 17.53125 46.1875 27.296875 
Q 46.1875 37.015625 41.984375 42.703125 
Q 37.796875 48.390625 30.609375 48.390625 
z
M 30.609375 56 
Q 42.328125 56 49.015625 48.375 
Q 55.71875 40.765625 55.71875 27.296875 
Q 55.71875 13.875 49.015625 6.21875 
Q 42.328125 -1.421875 30.609375 -1.421875 
Q 18.84375 -1.421875 12.171875 6.21875 
Q 5.515625 13.875 5.515625 27.296875 
Q 5.515625 40.765625 12.171875 48.375 
Q 18.84375 56 30.609375 56 
z
" id="DejaVuSans-111"/>
      <path d="M 48.78125 52.59375 
L 48.78125 44.1875 
Q 44.96875 46.296875 41.140625 47.34375 
Q 37.3125 48.390625 33.40625 48.390625 
Q 24.65625 48.390625 19.8125 42.84375 
Q 14.984375 37.3125 14.984375 27.296875 
Q 14.984375 17.28125 19.8125 11.734375 
Q 24.65625 6.203125 33.40625 6.203125 
Q 37.3125 6.203125 41.140625 7.25 
Q 44.96875 8.296875 48.78125 10.40625 
L 48.78125 2.09375 
Q 45.015625 0.34375 40.984375 -0.53125 
Q 36.96875 -1.421875 32.421875 -1.421875 
Q 20.0625 -1.421875 12.78125 6.34375 
Q 5.515625 14.109375 5.515625 27.296875 
Q 5.515625 40.671875 12.859375 48.328125 
Q 20.21875 56 33.015625 56 
Q 37.15625 56 41.109375 55.140625 
Q 45.0625 54.296875 48.78125 52.59375 
z
" id="DejaVuSans-99"/>
      <path d="M 54.890625 33.015625 
L 54.890625 0 
L 45.90625 0 
L 45.90625 32.71875 
Q 45.90625 40.484375 42.875 44.328125 
Q 39.84375 48.1875 33.796875 48.1875 
Q 26.515625 48.1875 22.3125 43.546875 
Q 18.109375 38.921875 18.109375 30.90625 
L 18.109375 0 
L 9.078125 0 
L 9.078125 75.984375 
L 18.109375 75.984375 
L 18.109375 46.1875 
Q 21.34375 51.125 25.703125 53.5625 
Q 30.078125 56 35.796875 56 
Q 45.21875 56 50.046875 50.171875 
Q 54.890625 44.34375 54.890625 33.015625 
z
" id="DejaVuSans-104"/>
      <path d="M 44.28125 53.078125 
L 44.28125 44.578125 
Q 40.484375 46.53125 36.375 47.5 
Q 32.28125 48.484375 27.875 48.484375 
Q 21.1875 48.484375 17.84375 46.4375 
Q 14.5 44.390625 14.5 40.28125 
Q 14.5 37.15625 16.890625 35.375 
Q 19.28125 33.59375 26.515625 31.984375 
L 29.59375 31.296875 
Q 39.15625 29.25 43.1875 25.515625 
Q 47.21875 21.78125 47.21875 15.09375 
Q 47.21875 7.46875 41.1875 3.015625 
Q 35.15625 -1.421875 24.609375 -1.421875 
Q 20.21875 -1.421875 15.453125 -0.5625 
Q 10.6875 0.296875 5.421875 2 
L 5.421875 11.28125 
Q 10.40625 8.6875 15.234375 7.390625 
Q 20.0625 6.109375 24.8125 6.109375 
Q 31.15625 6.109375 34.5625 8.28125 
Q 37.984375 10.453125 37.984375 14.40625 
Q 37.984375 18.0625 35.515625 20.015625 
Q 33.0625 21.96875 24.703125 23.78125 
L 21.578125 24.515625 
Q 13.234375 26.265625 9.515625 29.90625 
Q 5.8125 33.546875 5.8125 39.890625 
Q 5.8125 47.609375 11.28125 51.796875 
Q 16.75 56 26.8125 56 
Q 31.78125 56 36.171875 55.265625 
Q 40.578125 54.546875 44.28125 53.078125 
z
" id="DejaVuSans-115"/>
     </defs>
     <g transform="translate(312.488438 346.316563)scale(0.1 -0.1)">
      <use xlink:href="#DejaVuSans-101"/>
      <use x="61.523438" xlink:href="#DejaVuSans-112"/>
      <use x="125" xlink:href="#DejaVuSans-111"/>
      <use x="186.181641" xlink:href="#DejaVuSans-99"/>
      <use x="241.162109" xlink:href="#DejaVuSans-104"/>
      <use x="304.541016" xlink:href="#DejaVuSans-115"/>
     </g>
    </g>
   </g>
   <g id="matplotlib.axis_2">
    <g id="ytick_1">
     <g id="line2d_13">
      <defs>
       <path d="M 1.75 0 
L -1.75 -0 
" id="m0cafc1c3b9" style="stroke:#000000;stroke-width:0.8;"/>
      </defs>
      <g>
       <use style="stroke:#000000;stroke-width:0.8;" x="45.97" xlink:href="#m0cafc1c3b9" y="319.79"/>
      </g>
     </g>
     <g id="text_14">
      <!-- 0.0 -->
      <defs>
       <path d="M 10.6875 12.40625 
L 21 12.40625 
L 21 0 
L 10.6875 0 
z
" id="DejaVuSans-46"/>
      </defs>
      <g transform="translate(24.816875 323.589219)scale(0.1 -0.1)">
       <use xlink:href="#DejaVuSans-48"/>
       <use x="63.623047" xlink:href="#DejaVuSans-46"/>
       <use x="95.410156" xlink:href="#DejaVuSans-48"/>
      </g>
     </g>
    </g>
    <g id="ytick_2">
     <g id="line2d_14">
      <g>
       <use style="stroke:#000000;stroke-width:0.8;" x="45.97" xlink:href="#m0cafc1c3b9" y="289.287"/>
      </g>
     </g>
     <g id="text_15">
      <!-- 0.1 -->
      <g transform="translate(24.816875 293.086219)scale(0.1 -0.1)">
       <use xlink:href="#DejaVuSans-48"/>
       <use x="63.623047" xlink:href="#DejaVuSans-46"/>
       <use x="95.410156" xlink:href="#DejaVuSans-49"/>
      </g>
     </g>
    </g>
    <g id="ytick_3">
     <g id="line2d_15">
      <g>
       <use style="stroke:#000000;stroke-width:0.8;" x="45.97" xlink:href="#m0cafc1c3b9" y="258.784"/>
      </g>
     </g>
     <g id="text_16">
      <!-- 0.2 -->
      <g transform="translate(24.816875 262.583219)scale(0.1 -0.1)">
       <use xlink:href="#DejaVuSans-48"/>
       <use x="63.623047" xlink:href="#DejaVuSans-46"/>
       <use x="95.410156" xlink:href="#DejaVuSans-50"/>
      </g>
     </g>
    </g>
    <g id="ytick_4">
     <g id="line2d_16">
      <g>
       <use style="stroke:#000000;stroke-width:0.8;" x="45.97" xlink:href="#m0cafc1c3b9" y="228.281"/>
      </g>
     </g>
     <g id="text_17">
      <!-- 0.3 -->
      <g transform="translate(24.816875 232.080219)scale(0.1 -0.1)">
       <use xlink:href="#DejaVuSans-48"/>
       <use x="63.623047" xlink:href="#DejaVuSans-46"/>
       <use x="95.410156" xlink:href="#DejaVuSans-51"/>
      </g>
     </g>
    </g>
    <g id="ytick_5">
     <g id="line2d_17">
      <g>
       <use style="stroke:#000000;stroke-width:0.8;" x="45.97" xlink:href="#m0cafc1c3b9" y="197.778"/>
      </g>
     </g>
     <g id="text_18">
      <!-- 0.4 -->
      <g transform="translate(24.816875 201.577219)scale(0.1 -0.1)">
       <use xlink:href="#DejaVuSans-48"/>
       <use x="63.623047" xlink:href="#DejaVuSans-46"/>
       <use x="95.410156" xlink:href="#DejaVuSans-52"/>
      </g>
     </g>
    </g>
    <g id="ytick_6">
     <g id="line2d_18">
      <g>
       <use style="stroke:#000000;stroke-width:0.8;" x="45.97" xlink:href="#m0cafc1c3b9" y="167.275"/>
      </g>
     </g>
     <g id="text_19">
      <!-- 0.5 -->
      <g transform="translate(24.816875 171.074219)scale(0.1 -0.1)">
       <use xlink:href="#DejaVuSans-48"/>
       <use x="63.623047" xlink:href="#DejaVuSans-46"/>
       <use x="95.410156" xlink:href="#DejaVuSans-53"/>
      </g>
     </g>
    </g>
    <g id="ytick_7">
     <g id="line2d_19">
      <g>
       <use style="stroke:#000000;stroke-width:0.8;" x="45.97" xlink:href="#m0cafc1c3b9" y="136.772"/>
      </g>
     </g>
     <g id="text_20">
      <!-- 0.6 -->
      <g transform="translate(24.816875 140.571219)scale(0.1 -0.1)">
       <use xlink:href="#DejaVuSans-48"/>
       <use x="63.623047" xlink:href="#DejaVuSans-46"/>
       <use x="95.410156" xlink:href="#DejaVuSans-54"/>
      </g>
     </g>
    </g>
    <g id="ytick_8">
     <g id="line2d_20">
      <g>
       <use style="stroke:#000000;stroke-width:0.8;" x="45.97" xlink:href="#m0cafc1c3b9" y="106.269"/>
      </g>
     </g>
     <g id="text_21">
      <!-- 0.7 -->
      <g transform="translate(24.816875 110.068219)scale(0.1 -0.1)">
       <use xlink:href="#DejaVuSans-48"/>
       <use x="63.623047" xlink:href="#DejaVuSans-46"/>
       <use x="95.410156" xlink:href="#DejaVuSans-55"/>
      </g>
     </g>
    </g>
    <g id="ytick_9">
     <g id="line2d_21">
      <g>
       <use style="stroke:#000000;stroke-width:0.8;" x="45.97" xlink:href="#m0cafc1c3b9" y="75.766"/>
      </g>
     </g>
     <g id="text_22">
      <!-- 0.8 -->
      <g transform="translate(24.816875 79.565219)scale(0.1 -0.1)">
       <use xlink:href="#DejaVuSans-48"/>
       <use x="63.623047" xlink:href="#DejaVuSans-46"/>
       <use x="95.410156" xlink:href="#DejaVuSans-56"/>
      </g>
     </g>
    </g>
    <g id="ytick_10">
     <g id="line2d_22">
      <g>
       <use style="stroke:#000000;stroke-width:0.8;" x="45.97" xlink:href="#m0cafc1c3b9" y="45.263"/>
      </g>
     </g>
     <g id="text_23">
      <!-- 0.9 -->
      <g transform="translate(24.816875 49.062219)scale(0.1 -0.1)">
       <use xlink:href="#DejaVuSans-48"/>
       <use x="63.623047" xlink:href="#DejaVuSans-46"/>
       <use x="95.410156" xlink:href="#DejaVuSans-57"/>
      </g>
     </g>
    </g>
    <g id="ytick_11">
     <g id="line2d_23">
      <g>
       <use style="stroke:#000000;stroke-width:0.8;" x="45.97" xlink:href="#m0cafc1c3b9" y="14.76"/>
      </g>
     </g>
     <g id="text_24">
      <!-- 1.0 -->
      <g transform="translate(24.816875 18.559219)scale(0.1 -0.1)">
       <use xlink:href="#DejaVuSans-49"/>
       <use x="63.623047" xlink:href="#DejaVuSans-46"/>
       <use x="95.410156" xlink:href="#DejaVuSans-48"/>
      </g>
     </g>
    </g>
    <g id="text_25">
     <!-- train loss, precision, recall, F1 score -->
     <defs>
      <path d="M 18.3125 70.21875 
L 18.3125 54.6875 
L 36.8125 54.6875 
L 36.8125 47.703125 
L 18.3125 47.703125 
L 18.3125 18.015625 
Q 18.3125 11.328125 20.140625 9.421875 
Q 21.96875 7.515625 27.59375 7.515625 
L 36.8125 7.515625 
L 36.8125 0 
L 27.59375 0 
Q 17.1875 0 13.234375 3.875 
Q 9.28125 7.765625 9.28125 18.015625 
L 9.28125 47.703125 
L 2.6875 47.703125 
L 2.6875 54.6875 
L 9.28125 54.6875 
L 9.28125 70.21875 
z
" id="DejaVuSans-116"/>
      <path d="M 41.109375 46.296875 
Q 39.59375 47.171875 37.8125 47.578125 
Q 36.03125 48 33.890625 48 
Q 26.265625 48 22.1875 43.046875 
Q 18.109375 38.09375 18.109375 28.8125 
L 18.109375 0 
L 9.078125 0 
L 9.078125 54.6875 
L 18.109375 54.6875 
L 18.109375 46.1875 
Q 20.953125 51.171875 25.484375 53.578125 
Q 30.03125 56 36.53125 56 
Q 37.453125 56 38.578125 55.875 
Q 39.703125 55.765625 41.0625 55.515625 
z
" id="DejaVuSans-114"/>
      <path d="M 34.28125 27.484375 
Q 23.390625 27.484375 19.1875 25 
Q 14.984375 22.515625 14.984375 16.5 
Q 14.984375 11.71875 18.140625 8.90625 
Q 21.296875 6.109375 26.703125 6.109375 
Q 34.1875 6.109375 38.703125 11.40625 
Q 43.21875 16.703125 43.21875 25.484375 
L 43.21875 27.484375 
z
M 52.203125 31.203125 
L 52.203125 0 
L 43.21875 0 
L 43.21875 8.296875 
Q 40.140625 3.328125 35.546875 0.953125 
Q 30.953125 -1.421875 24.3125 -1.421875 
Q 15.921875 -1.421875 10.953125 3.296875 
Q 6 8.015625 6 15.921875 
Q 6 25.140625 12.171875 29.828125 
Q 18.359375 34.515625 30.609375 34.515625 
L 43.21875 34.515625 
L 43.21875 35.40625 
Q 43.21875 41.609375 39.140625 45 
Q 35.0625 48.390625 27.6875 48.390625 
Q 23 48.390625 18.546875 47.265625 
Q 14.109375 46.140625 10.015625 43.890625 
L 10.015625 52.203125 
Q 14.9375 54.109375 19.578125 55.046875 
Q 24.21875 56 28.609375 56 
Q 40.484375 56 46.34375 49.84375 
Q 52.203125 43.703125 52.203125 31.203125 
z
" id="DejaVuSans-97"/>
      <path d="M 9.421875 54.6875 
L 18.40625 54.6875 
L 18.40625 0 
L 9.421875 0 
z
M 9.421875 75.984375 
L 18.40625 75.984375 
L 18.40625 64.59375 
L 9.421875 64.59375 
z
" id="DejaVuSans-105"/>
      <path d="M 54.890625 33.015625 
L 54.890625 0 
L 45.90625 0 
L 45.90625 32.71875 
Q 45.90625 40.484375 42.875 44.328125 
Q 39.84375 48.1875 33.796875 48.1875 
Q 26.515625 48.1875 22.3125 43.546875 
Q 18.109375 38.921875 18.109375 30.90625 
L 18.109375 0 
L 9.078125 0 
L 9.078125 54.6875 
L 18.109375 54.6875 
L 18.109375 46.1875 
Q 21.34375 51.125 25.703125 53.5625 
Q 30.078125 56 35.796875 56 
Q 45.21875 56 50.046875 50.171875 
Q 54.890625 44.34375 54.890625 33.015625 
z
" id="DejaVuSans-110"/>
      <path id="DejaVuSans-32"/>
      <path d="M 9.421875 75.984375 
L 18.40625 75.984375 
L 18.40625 0 
L 9.421875 0 
z
" id="DejaVuSans-108"/>
      <path d="M 11.71875 12.40625 
L 22.015625 12.40625 
L 22.015625 4 
L 14.015625 -11.625 
L 7.71875 -11.625 
L 11.71875 4 
z
" id="DejaVuSans-44"/>
      <path d="M 9.8125 72.90625 
L 51.703125 72.90625 
L 51.703125 64.59375 
L 19.671875 64.59375 
L 19.671875 43.109375 
L 48.578125 43.109375 
L 48.578125 34.8125 
L 19.671875 34.8125 
L 19.671875 0 
L 9.8125 0 
z
" id="DejaVuSans-70"/>
     </defs>
     <g transform="translate(18.737187 257.270312)rotate(-90)scale(0.1 -0.1)">
      <use xlink:href="#DejaVuSans-116"/>
      <use x="39.208984" xlink:href="#DejaVuSans-114"/>
      <use x="80.322266" xlink:href="#DejaVuSans-97"/>
      <use x="141.601562" xlink:href="#DejaVuSans-105"/>
      <use x="169.384766" xlink:href="#DejaVuSans-110"/>
      <use x="232.763672" xlink:href="#DejaVuSans-32"/>
      <use x="264.550781" xlink:href="#DejaVuSans-108"/>
      <use x="292.333984" xlink:href="#DejaVuSans-111"/>
      <use x="353.515625" xlink:href="#DejaVuSans-115"/>
      <use x="405.615234" xlink:href="#DejaVuSans-115"/>
      <use x="457.714844" xlink:href="#DejaVuSans-44"/>
      <use x="489.501953" xlink:href="#DejaVuSans-32"/>
      <use x="521.289062" xlink:href="#DejaVuSans-112"/>
      <use x="584.765625" xlink:href="#DejaVuSans-114"/>
      <use x="625.847656" xlink:href="#DejaVuSans-101"/>
      <use x="687.371094" xlink:href="#DejaVuSans-99"/>
      <use x="742.351562" xlink:href="#DejaVuSans-105"/>
      <use x="770.134766" xlink:href="#DejaVuSans-115"/>
      <use x="822.234375" xlink:href="#DejaVuSans-105"/>
      <use x="850.017578" xlink:href="#DejaVuSans-111"/>
      <use x="911.199219" xlink:href="#DejaVuSans-110"/>
      <use x="974.578125" xlink:href="#DejaVuSans-44"/>
      <use x="1006.365234" xlink:href="#DejaVuSans-32"/>
      <use x="1038.152344" xlink:href="#DejaVuSans-114"/>
      <use x="1079.234375" xlink:href="#DejaVuSans-101"/>
      <use x="1140.757812" xlink:href="#DejaVuSans-99"/>
      <use x="1195.738281" xlink:href="#DejaVuSans-97"/>
      <use x="1257.017578" xlink:href="#DejaVuSans-108"/>
      <use x="1284.800781" xlink:href="#DejaVuSans-108"/>
      <use x="1312.583984" xlink:href="#DejaVuSans-44"/>
      <use x="1344.371094" xlink:href="#DejaVuSans-32"/>
      <use x="1376.158203" xlink:href="#DejaVuSans-70"/>
      <use x="1433.677734" xlink:href="#DejaVuSans-49"/>
      <use x="1497.300781" xlink:href="#DejaVuSans-32"/>
      <use x="1529.087891" xlink:href="#DejaVuSans-115"/>
      <use x="1581.1875" xlink:href="#DejaVuSans-99"/>
      <use x="1636.167969" xlink:href="#DejaVuSans-111"/>
      <use x="1697.349609" xlink:href="#DejaVuSans-114"/>
      <use x="1738.431641" xlink:href="#DejaVuSans-101"/>
     </g>
    </g>
   </g>
   <g id="line2d_24">
    <path clip-path="url(#p65ca27228a)" d="M 45.97 175.969002 
L 50.749013 239.67565 
L 55.528025 259.291789 
L 60.307038 267.531343 
L 65.08605 272.39811 
L 69.865063 277.753495 
L 74.644076 280.283684 
L 79.423088 280.862704 
L 84.202101 282.593232 
L 88.981113 282.233423 
L 93.760126 284.091205 
L 98.539139 286.043398 
L 103.318151 287.072418 
L 108.097164 286.104632 
L 112.876176 287.332313 
L 117.655189 288.284062 
L 122.434202 289.04403 
L 127.213214 292.183907 
L 131.992227 290.129636 
L 136.771239 284.696239 
L 141.550252 290.320398 
L 146.329265 291.616941 
L 151.108277 292.496482 
L 155.88729 293.803026 
L 160.666303 293.007123 
L 165.445315 292.365248 
L 170.224328 291.941117 
L 175.00334 294.006589 
L 179.782353 291.999536 
L 184.561366 288.160672 
L 189.340378 294.419306 
L 194.119391 295.05546 
L 198.898403 295.295419 
L 203.677416 295.32475 
L 208.456429 294.472512 
L 213.235441 296.136107 
L 218.014454 290.130222 
L 222.793466 286.780622 
L 227.572479 297.117218 
L 232.351492 292.869537 
L 237.130504 294.574428 
L 241.909517 293.509024 
L 246.688529 290.854048 
L 251.467542 296.03933 
L 256.246555 296.736163 
L 261.025567 295.765178 
L 265.80458 297.731893 
L 270.583592 299.732342 
L 275.362605 298.072989 
L 280.141618 296.903742 
L 284.92063 299.602128 
L 289.699643 297.784822 
L 294.478655 298.65296 
L 299.257668 300.347412 
L 304.036681 298.094053 
L 308.815693 298.675194 
L 313.594706 299.104868 
L 318.373718 296.164968 
L 323.152731 288.961457 
L 327.931744 296.8485 
L 332.710756 295.472935 
L 337.489769 296.541369 
L 342.268782 298.248834 
L 347.047794 298.315836 
L 351.826807 299.617534 
L 356.605819 298.83815 
L 361.384832 299.083765 
L 366.163845 300.384506 
L 370.942857 299.354617 
L 375.72187 299.824702 
L 380.500882 299.769011 
L 385.279895 299.181793 
L 390.058908 297.230541 
L 394.83792 301.053709 
L 399.616933 299.52672 
L 404.395945 300.723268 
L 409.174958 299.890054 
L 413.953971 298.280197 
L 418.732983 292.503047 
L 423.511996 300.102023 
L 428.291008 298.455342 
L 433.070021 298.875339 
L 437.849034 299.670376 
L 442.628046 301.416453 
L 447.407059 299.345548 
L 452.186071 297.156491 
L 456.965084 301.027659 
L 461.744097 299.928017 
L 466.523109 301.607377 
L 471.302122 300.695204 
L 476.081134 301.406603 
L 480.860147 300.832988 
L 485.63916 301.096914 
L 490.418172 302.050064 
L 495.197185 301.662259 
L 499.976197 301.694984 
L 504.75521 300.100073 
L 509.534223 301.895811 
L 514.313235 303.065838 
L 519.092248 302.079752 
L 523.871261 300.831846 
L 528.650273 300.543688 
L 533.429286 302.283624 
L 538.208298 303.130653 
L 542.987311 303.674079 
L 547.766324 299.495212 
L 552.545336 296.542188 
L 557.324349 300.687356 
L 562.103361 301.777084 
L 566.882374 303.200745 
L 571.661387 302.138898 
L 576.440399 304.223019 
L 581.219412 303.055938 
L 585.998424 301.642442 
L 590.777437 302.406409 
L 595.55645 304.394299 
L 600.335462 302.675912 
L 605.114475 303.339213 
L 609.893487 303.514236 
L 614.6725 304.691365 
" style="fill:none;stroke:#ff0000;stroke-linecap:square;stroke-width:1.5;"/>
   </g>
   <g id="line2d_25">
    <path clip-path="url(#p65ca27228a)" d="M 45.97 319.79 
L 50.749013 319.79 
L 55.528025 319.79 
L 60.307038 315.667973 
L 65.08605 311.545946 
L 69.865063 308.630366 
L 74.644076 312.067722 
L 79.423088 312.43988 
L 84.202101 312.16425 
L 88.981113 313.3 
L 93.760126 313.086044 
L 98.539139 311.762895 
L 103.318151 310.684627 
L 108.097164 311.074857 
L 112.876176 310.257812 
L 117.655189 312.350244 
L 122.434202 311.867143 
L 127.213214 312.350244 
L 131.992227 312.527381 
L 136.771239 312.527381 
L 141.550252 312.696279 
L 146.329265 311.655867 
L 151.108277 312.16425 
L 155.88729 312.067722 
L 160.666303 312.8575 
L 165.445315 311.968718 
L 170.224328 312.350244 
L 175.00334 312.16425 
L 179.782353 309.789016 
L 184.561366 311.762895 
L 189.340378 311.316944 
L 194.119391 311.197606 
L 198.898403 310.106508 
L 203.677416 309.45 
L 208.456429 309.950323 
L 213.235441 307.828039 
L 218.014454 310.684627 
L 222.793466 309.271724 
L 227.572479 311.968718 
L 232.351492 301.303333 
L 237.130504 305.264762 
L 241.909517 304.147436 
L 246.688529 300.725625 
L 251.467542 311.074857 
L 256.246555 314.789508 
L 261.025567 314.62 
L 265.80458 313.80902 
L 270.583592 311.074857 
L 275.362605 295.3876 
L 280.141618 297.195185 
L 284.92063 295.3876 
L 289.699643 287.681579 
L 294.478655 276.214286 
L 299.257668 218.113333 
L 304.036681 308.058077 
L 308.815693 276.214286 
L 313.594706 281.66125 
L 318.373718 279.119333 
L 323.152731 14.76 
L 327.931744 243.5325 
L 332.710756 167.275 
L 337.489769 218.113333 
L 342.268782 167.275 
L 347.047794 167.275 
L 351.826807 14.76 
L 356.605819 116.436667 
L 361.384832 14.76 
L 366.163845 167.275 
L 370.942857 218.113333 
L 375.72187 14.76 
L 380.500882 14.76 
L 385.279895 272.862308 
L 390.058908 116.436667 
L 394.83792 167.275 
L 399.616933 14.76 
L 404.395945 167.275 
L 409.174958 14.76 
L 413.953971 218.113333 
L 418.732983 14.76 
L 423.511996 167.275 
L 428.291008 14.76 
L 433.070021 14.76 
L 437.849034 167.275 
L 442.628046 14.76 
L 447.407059 14.76 
L 452.186071 14.76 
L 456.965084 167.275 
L 461.744097 14.76 
L 466.523109 14.76 
L 471.302122 167.275 
L 476.081134 14.76 
L 480.860147 14.76 
L 485.63916 14.76 
L 490.418172 167.275 
L 495.197185 167.275 
L 499.976197 14.76 
L 504.75521 14.76 
L 509.534223 14.76 
L 514.313235 14.76 
L 519.092248 167.275 
L 523.871261 14.76 
L 528.650273 167.275 
L 533.429286 167.275 
L 538.208298 14.76 
L 542.987311 14.76 
L 547.766324 14.76 
L 552.545336 14.76 
L 557.324349 167.275 
L 562.103361 14.76 
L 566.882374 14.76 
L 571.661387 167.275 
L 576.440399 14.76 
L 581.219412 14.76 
L 585.998424 14.76 
L 590.777437 14.76 
L 595.55645 116.436667 
L 600.335462 167.275 
L 605.114475 14.76 
L 609.893487 167.275 
L 614.6725 14.76 
" style="fill:none;stroke:#008000;stroke-linecap:square;stroke-width:1.5;"/>
   </g>
   <g id="line2d_26">
    <path clip-path="url(#p65ca27228a)" d="M 45.97 319.79 
L 50.749013 319.79 
L 55.528025 319.79 
L 60.307038 268.951667 
L 65.08605 218.113333 
L 69.865063 167.275 
L 74.644076 218.113333 
L 79.423088 218.113333 
L 84.202101 218.113333 
L 88.981113 218.113333 
L 93.760126 218.113333 
L 98.539139 218.113333 
L 103.318151 218.113333 
L 108.097164 218.113333 
L 112.876176 218.113333 
L 117.655189 218.113333 
L 122.434202 218.113333 
L 127.213214 218.113333 
L 131.992227 218.113333 
L 136.771239 218.113333 
L 141.550252 218.113333 
L 146.329265 218.113333 
L 151.108277 218.113333 
L 155.88729 218.113333 
L 160.666303 218.113333 
L 165.445315 218.113333 
L 170.224328 218.113333 
L 175.00334 218.113333 
L 179.782353 218.113333 
L 184.561366 218.113333 
L 189.340378 218.113333 
L 194.119391 218.113333 
L 198.898403 218.113333 
L 203.677416 218.113333 
L 208.456429 218.113333 
L 213.235441 218.113333 
L 218.014454 218.113333 
L 222.793466 268.951667 
L 227.572479 268.951667 
L 232.351492 218.113333 
L 237.130504 218.113333 
L 241.909517 218.113333 
L 246.688529 268.951667 
L 251.467542 218.113333 
L 256.246555 268.951667 
L 261.025567 268.951667 
L 265.80458 268.951667 
L 270.583592 218.113333 
L 275.362605 218.113333 
L 280.141618 218.113333 
L 284.92063 218.113333 
L 289.699643 218.113333 
L 294.478655 218.113333 
L 299.257668 268.951667 
L 304.036681 167.275 
L 308.815693 268.951667 
L 313.594706 218.113333 
L 318.373718 218.113333 
L 323.152731 268.951667 
L 327.931744 268.951667 
L 332.710756 268.951667 
L 337.489769 268.951667 
L 342.268782 268.951667 
L 347.047794 268.951667 
L 351.826807 268.951667 
L 356.605819 218.113333 
L 361.384832 268.951667 
L 366.163845 268.951667 
L 370.942857 268.951667 
L 375.72187 268.951667 
L 380.500882 268.951667 
L 385.279895 218.113333 
L 390.058908 218.113333 
L 394.83792 218.113333 
L 399.616933 268.951667 
L 404.395945 268.951667 
L 409.174958 268.951667 
L 413.953971 268.951667 
L 418.732983 268.951667 
L 423.511996 268.951667 
L 428.291008 268.951667 
L 433.070021 268.951667 
L 437.849034 268.951667 
L 442.628046 268.951667 
L 447.407059 268.951667 
L 452.186071 268.951667 
L 456.965084 268.951667 
L 461.744097 268.951667 
L 466.523109 268.951667 
L 471.302122 268.951667 
L 476.081134 268.951667 
L 480.860147 268.951667 
L 485.63916 268.951667 
L 490.418172 268.951667 
L 495.197185 268.951667 
L 499.976197 268.951667 
L 504.75521 268.951667 
L 509.534223 268.951667 
L 514.313235 268.951667 
L 519.092248 268.951667 
L 523.871261 268.951667 
L 528.650273 268.951667 
L 533.429286 268.951667 
L 538.208298 268.951667 
L 542.987311 268.951667 
L 547.766324 268.951667 
L 552.545336 268.951667 
L 557.324349 268.951667 
L 562.103361 268.951667 
L 566.882374 218.113333 
L 571.661387 268.951667 
L 576.440399 268.951667 
L 581.219412 268.951667 
L 585.998424 218.113333 
L 590.777437 218.113333 
L 595.55645 218.113333 
L 600.335462 268.951667 
L 605.114475 268.951667 
L 609.893487 268.951667 
L 614.6725 268.951667 
" style="fill:none;stroke:#0000ff;stroke-linecap:square;stroke-width:1.5;"/>
   </g>
   <g id="line2d_27">
    <path clip-path="url(#p65ca27228a)" d="M 45.97 319.79 
L 50.749013 319.79 
L 55.528025 319.79 
L 60.307038 312.16425 
L 65.08605 304.5385 
L 69.865063 298.9925 
L 74.644076 305.435647 
L 79.423088 306.080787 
L 84.202101 305.602558 
L 88.981113 307.5888 
L 93.760126 307.211443 
L 98.539139 304.910488 
L 103.318151 303.076027 
L 108.097164 303.735789 
L 112.876176 302.359714 
L 117.655189 305.925 
L 122.434202 305.089759 
L 127.213214 305.925 
L 131.992227 306.233111 
L 136.771239 306.233111 
L 141.550252 306.527826 
L 146.329265 304.72679 
L 151.108277 305.602558 
L 155.88729 305.435647 
L 160.666303 306.81 
L 165.445315 305.264762 
L 170.224328 305.925 
L 175.00334 305.602558 
L 179.782353 301.579254 
L 184.561366 304.910488 
L 189.340378 304.147436 
L 194.119391 303.944286 
L 198.898403 302.107101 
L 203.677416 301.018923 
L 208.456429 301.847059 
L 213.235441 298.384386 
L 218.014454 303.076027 
L 222.793466 302.359714 
L 227.572479 306.233111 
L 232.351492 288.504872 
L 237.130504 294.370833 
L 241.909517 292.676222 
L 246.688529 292.06 
L 251.467542 303.735789 
L 256.246555 310.684627 
L 261.025567 310.404462 
L 265.80458 309.087193 
L 270.583592 303.735789 
L 275.362605 280.43129 
L 280.141618 282.816667 
L 284.92063 280.43129 
L 289.699643 270.9852 
L 294.478655 258.784 
L 299.257668 252.005556 
L 304.036681 298.002143 
L 308.815693 272.862308 
L 313.594706 264.33 
L 318.373718 261.689048 
L 323.152731 232.638571 
L 327.931744 258.784 
L 332.710756 243.5325 
L 337.489769 252.005556 
L 342.268782 243.5325 
L 347.047794 243.5325 
L 351.826807 232.638571 
L 356.605819 184.221111 
L 361.384832 232.638571 
L 366.163845 243.5325 
L 370.942857 252.005556 
L 375.72187 232.638571 
L 380.500882 232.638571 
L 385.279895 255.573158 
L 390.058908 184.221111 
L 394.83792 197.778 
L 399.616933 232.638571 
L 404.395945 243.5325 
L 409.174958 232.638571 
L 413.953971 252.005556 
L 418.732983 232.638571 
L 423.511996 243.5325 
L 428.291008 232.638571 
L 433.070021 232.638571 
L 437.849034 243.5325 
L 442.628046 232.638571 
L 447.407059 232.638571 
L 452.186071 232.638571 
L 456.965084 243.5325 
L 461.744097 232.638571 
L 466.523109 232.638571 
L 471.302122 243.5325 
L 476.081134 232.638571 
L 480.860147 232.638571 
L 485.63916 232.638571 
L 490.418172 243.5325 
L 495.197185 243.5325 
L 499.976197 232.638571 
L 504.75521 232.638571 
L 509.534223 232.638571 
L 514.313235 232.638571 
L 519.092248 243.5325 
L 523.871261 232.638571 
L 528.650273 243.5325 
L 533.429286 243.5325 
L 538.208298 232.638571 
L 542.987311 232.638571 
L 547.766324 232.638571 
L 552.545336 232.638571 
L 557.324349 243.5325 
L 562.103361 232.638571 
L 566.882374 167.275 
L 571.661387 243.5325 
L 576.440399 232.638571 
L 581.219412 232.638571 
L 585.998424 167.275 
L 590.777437 167.275 
L 595.55645 184.221111 
L 600.335462 243.5325 
L 605.114475 232.638571 
L 609.893487 243.5325 
L 614.6725 232.638571 
" style="fill:none;stroke:#bf00bf;stroke-linecap:square;stroke-width:1.5;"/>
   </g>
   <g id="patch_3">
    <path d="M 45.97 319.79 
L 45.97 14.76 
" style="fill:none;stroke:#000000;stroke-linecap:square;stroke-linejoin:miter;stroke-width:0.8;"/>
   </g>
   <g id="patch_4">
    <path d="M 614.6725 319.79 
L 614.6725 14.76 
" style="fill:none;stroke:#000000;stroke-linecap:square;stroke-linejoin:miter;stroke-width:0.8;"/>
   </g>
   <g id="patch_5">
    <path d="M 45.97 319.79 
L 614.6725 319.79 
" style="fill:none;stroke:#000000;stroke-linecap:square;stroke-linejoin:miter;stroke-width:0.8;"/>
   </g>
   <g id="patch_6">
    <path d="M 45.97 14.76 
L 614.6725 14.76 
" style="fill:none;stroke:#000000;stroke-linecap:square;stroke-linejoin:miter;stroke-width:0.8;"/>
   </g>
   <g id="legend_1">
    <g id="patch_7">
     <path d="M 627.359525 198.13125 
L 707.2939 198.13125 
Q 709.2939 198.13125 709.2939 196.13125 
L 709.2939 138.41875 
Q 709.2939 136.41875 707.2939 136.41875 
L 627.359525 136.41875 
Q 625.359525 136.41875 625.359525 138.41875 
L 625.359525 196.13125 
Q 625.359525 198.13125 627.359525 198.13125 
z
" style="fill:#ffffff;opacity:0.8;stroke:#000000;stroke-linejoin:miter;"/>
    </g>
    <g id="line2d_28">
     <path d="M 629.359525 144.517187 
L 649.359525 144.517187 
" style="fill:none;stroke:#ff0000;stroke-linecap:square;stroke-width:1.5;"/>
    </g>
    <g id="line2d_29"/>
    <g id="text_26">
     <!-- Train loss -->
     <defs>
      <path d="M -0.296875 72.90625 
L 61.375 72.90625 
L 61.375 64.59375 
L 35.5 64.59375 
L 35.5 0 
L 25.59375 0 
L 25.59375 64.59375 
L -0.296875 64.59375 
z
" id="DejaVuSans-84"/>
     </defs>
     <g transform="translate(657.359525 148.017187)scale(0.1 -0.1)">
      <use xlink:href="#DejaVuSans-84"/>
      <use x="60.865234" xlink:href="#DejaVuSans-114"/>
      <use x="101.978516" xlink:href="#DejaVuSans-97"/>
      <use x="163.257812" xlink:href="#DejaVuSans-105"/>
      <use x="191.041016" xlink:href="#DejaVuSans-110"/>
      <use x="254.419922" xlink:href="#DejaVuSans-32"/>
      <use x="286.207031" xlink:href="#DejaVuSans-108"/>
      <use x="313.990234" xlink:href="#DejaVuSans-111"/>
      <use x="375.171875" xlink:href="#DejaVuSans-115"/>
      <use x="427.271484" xlink:href="#DejaVuSans-115"/>
     </g>
    </g>
    <g id="line2d_30">
     <path d="M 629.359525 159.195312 
L 649.359525 159.195312 
" style="fill:none;stroke:#008000;stroke-linecap:square;stroke-width:1.5;"/>
    </g>
    <g id="line2d_31"/>
    <g id="text_27">
     <!-- Precision -->
     <defs>
      <path d="M 19.671875 64.796875 
L 19.671875 37.40625 
L 32.078125 37.40625 
Q 38.96875 37.40625 42.71875 40.96875 
Q 46.484375 44.53125 46.484375 51.125 
Q 46.484375 57.671875 42.71875 61.234375 
Q 38.96875 64.796875 32.078125 64.796875 
z
M 9.8125 72.90625 
L 32.078125 72.90625 
Q 44.34375 72.90625 50.609375 67.359375 
Q 56.890625 61.8125 56.890625 51.125 
Q 56.890625 40.328125 50.609375 34.8125 
Q 44.34375 29.296875 32.078125 29.296875 
L 19.671875 29.296875 
L 19.671875 0 
L 9.8125 0 
z
" id="DejaVuSans-80"/>
     </defs>
     <g transform="translate(657.359525 162.695312)scale(0.1 -0.1)">
      <use xlink:href="#DejaVuSans-80"/>
      <use x="60.287109" xlink:href="#DejaVuSans-114"/>
      <use x="101.369141" xlink:href="#DejaVuSans-101"/>
      <use x="162.892578" xlink:href="#DejaVuSans-99"/>
      <use x="217.873047" xlink:href="#DejaVuSans-105"/>
      <use x="245.65625" xlink:href="#DejaVuSans-115"/>
      <use x="297.755859" xlink:href="#DejaVuSans-105"/>
      <use x="325.539062" xlink:href="#DejaVuSans-111"/>
      <use x="386.720703" xlink:href="#DejaVuSans-110"/>
     </g>
    </g>
    <g id="line2d_32">
     <path d="M 629.359525 173.873437 
L 649.359525 173.873437 
" style="fill:none;stroke:#0000ff;stroke-linecap:square;stroke-width:1.5;"/>
    </g>
    <g id="line2d_33"/>
    <g id="text_28">
     <!-- Recall -->
     <defs>
      <path d="M 44.390625 34.1875 
Q 47.5625 33.109375 50.5625 29.59375 
Q 53.5625 26.078125 56.59375 19.921875 
L 66.609375 0 
L 56 0 
L 46.6875 18.703125 
Q 43.0625 26.03125 39.671875 28.421875 
Q 36.28125 30.8125 30.421875 30.8125 
L 19.671875 30.8125 
L 19.671875 0 
L 9.8125 0 
L 9.8125 72.90625 
L 32.078125 72.90625 
Q 44.578125 72.90625 50.734375 67.671875 
Q 56.890625 62.453125 56.890625 51.90625 
Q 56.890625 45.015625 53.6875 40.46875 
Q 50.484375 35.9375 44.390625 34.1875 
z
M 19.671875 64.796875 
L 19.671875 38.921875 
L 32.078125 38.921875 
Q 39.203125 38.921875 42.84375 42.21875 
Q 46.484375 45.515625 46.484375 51.90625 
Q 46.484375 58.296875 42.84375 61.546875 
Q 39.203125 64.796875 32.078125 64.796875 
z
" id="DejaVuSans-82"/>
     </defs>
     <g transform="translate(657.359525 177.373437)scale(0.1 -0.1)">
      <use xlink:href="#DejaVuSans-82"/>
      <use x="69.419922" xlink:href="#DejaVuSans-101"/>
      <use x="130.943359" xlink:href="#DejaVuSans-99"/>
      <use x="185.923828" xlink:href="#DejaVuSans-97"/>
      <use x="247.203125" xlink:href="#DejaVuSans-108"/>
      <use x="274.986328" xlink:href="#DejaVuSans-108"/>
     </g>
    </g>
    <g id="line2d_34">
     <path d="M 629.359525 188.551562 
L 649.359525 188.551562 
" style="fill:none;stroke:#bf00bf;stroke-linecap:square;stroke-width:1.5;"/>
    </g>
    <g id="line2d_35"/>
    <g id="text_29">
     <!-- F1 score -->
     <g transform="translate(657.359525 192.051562)scale(0.1 -0.1)">
      <use xlink:href="#DejaVuSans-70"/>
      <use x="57.519531" xlink:href="#DejaVuSans-49"/>
      <use x="121.142578" xlink:href="#DejaVuSans-32"/>
      <use x="152.929688" xlink:href="#DejaVuSans-115"/>
      <use x="205.029297" xlink:href="#DejaVuSans-99"/>
      <use x="260.009766" xlink:href="#DejaVuSans-111"/>
      <use x="321.191406" xlink:href="#DejaVuSans-114"/>
      <use x="362.273438" xlink:href="#DejaVuSans-101"/>
     </g>
    </g>
   </g>
  </g>
 </g>
 <defs>
  <clipPath id="p65ca27228a">
   <rect height="305.03" width="568.7025" x="45.97" y="14.76"/>
  </clipPath>
 </defs>
</svg>
